%TF.GenerationSoftware,KiCad,Pcbnew,6.0.10-86aedd382b~118~ubuntu22.04.1*%
%TF.CreationDate,2023-02-07T20:01:53+01:00*%
%TF.ProjectId,ioBoard,696f426f-6172-4642-9e6b-696361645f70,rev?*%
%TF.SameCoordinates,Original*%
%TF.FileFunction,Copper,L2,Bot*%
%TF.FilePolarity,Positive*%
%FSLAX46Y46*%
G04 Gerber Fmt 4.6, Leading zero omitted, Abs format (unit mm)*
G04 Created by KiCad (PCBNEW 6.0.10-86aedd382b~118~ubuntu22.04.1) date 2023-02-07 20:01:53*
%MOMM*%
%LPD*%
G01*
G04 APERTURE LIST*
%TA.AperFunction,ViaPad*%
%ADD10C,0.800000*%
%TD*%
%TA.AperFunction,Conductor*%
%ADD11C,0.500000*%
%TD*%
G04 APERTURE END LIST*
D10*
%TO.N,GND*%
X86512400Y-115773200D03*
X87113200Y-104024165D03*
X86106000Y-91694000D03*
X84836000Y-106883200D03*
X110083600Y-106883200D03*
X88535600Y-104024165D03*
X95910400Y-114858800D03*
X84624000Y-104024165D03*
X85894000Y-104024165D03*
X108356400Y-115824000D03*
X104546400Y-99720400D03*
X94996000Y-114858800D03*
%TO.N,+3.3V*%
X98907600Y-106070400D03*
X96136100Y-106070400D03*
%TD*%
D11*
%TO.N,+3.3V*%
X98907600Y-106070400D02*
X96136100Y-106070400D01*
%TD*%
%TA.AperFunction,Conductor*%
%TO.N,GND*%
G36*
X114433621Y-90698002D02*
G01*
X114480114Y-90751658D01*
X114491500Y-90804000D01*
X114491500Y-118568633D01*
X114490000Y-118588018D01*
X114487690Y-118602851D01*
X114487690Y-118602855D01*
X114486309Y-118611724D01*
X114488662Y-118629720D01*
X114489528Y-118653116D01*
X114477326Y-118870403D01*
X114474332Y-118923708D01*
X114472751Y-118937744D01*
X114447698Y-119085193D01*
X114422646Y-119232636D01*
X114419502Y-119246411D01*
X114336696Y-119533837D01*
X114332029Y-119547174D01*
X114261806Y-119716708D01*
X114245887Y-119755142D01*
X114217565Y-119823517D01*
X114211436Y-119836244D01*
X114066744Y-120098044D01*
X114059231Y-120110000D01*
X113886138Y-120353950D01*
X113877329Y-120364996D01*
X113678018Y-120588026D01*
X113668026Y-120598018D01*
X113444996Y-120797329D01*
X113433950Y-120806138D01*
X113190000Y-120979231D01*
X113178044Y-120986744D01*
X112916244Y-121131436D01*
X112903521Y-121137563D01*
X112796708Y-121181806D01*
X112627174Y-121252029D01*
X112613837Y-121256696D01*
X112326411Y-121339502D01*
X112312636Y-121342646D01*
X112165193Y-121367698D01*
X112017744Y-121392751D01*
X112003712Y-121394332D01*
X111916562Y-121399226D01*
X111740407Y-121409118D01*
X111713962Y-121407817D01*
X111713149Y-121407690D01*
X111713145Y-121407690D01*
X111704276Y-121406309D01*
X111695374Y-121407473D01*
X111695372Y-121407473D01*
X111680323Y-121409441D01*
X111672714Y-121410436D01*
X111656379Y-121411500D01*
X83351367Y-121411500D01*
X83331982Y-121410000D01*
X83317149Y-121407690D01*
X83317145Y-121407690D01*
X83308276Y-121406309D01*
X83290280Y-121408662D01*
X83266884Y-121409528D01*
X82996288Y-121394332D01*
X82982256Y-121392751D01*
X82834807Y-121367698D01*
X82687364Y-121342646D01*
X82673589Y-121339502D01*
X82386163Y-121256696D01*
X82372826Y-121252029D01*
X82203292Y-121181806D01*
X82096479Y-121137563D01*
X82083756Y-121131436D01*
X81821956Y-120986744D01*
X81810000Y-120979231D01*
X81566050Y-120806138D01*
X81555004Y-120797329D01*
X81331974Y-120598018D01*
X81321982Y-120588026D01*
X81122671Y-120364996D01*
X81113862Y-120353950D01*
X80940769Y-120110000D01*
X80933256Y-120098044D01*
X80788564Y-119836244D01*
X80782435Y-119823517D01*
X80754114Y-119755142D01*
X80738194Y-119716708D01*
X80667971Y-119547174D01*
X80663304Y-119533837D01*
X80580498Y-119246411D01*
X80577354Y-119232636D01*
X80552302Y-119085193D01*
X80527249Y-118937744D01*
X80525668Y-118923708D01*
X80522675Y-118870403D01*
X80511089Y-118664100D01*
X80512411Y-118640208D01*
X80512334Y-118640201D01*
X80512537Y-118637937D01*
X80512637Y-118636131D01*
X80512770Y-118635342D01*
X80513576Y-118630552D01*
X80513729Y-118618000D01*
X81698526Y-118618000D01*
X81718391Y-118870403D01*
X81777495Y-119116591D01*
X81874384Y-119350502D01*
X82006672Y-119566376D01*
X82171102Y-119758898D01*
X82363624Y-119923328D01*
X82579498Y-120055616D01*
X82584068Y-120057509D01*
X82584072Y-120057511D01*
X82808836Y-120150611D01*
X82813409Y-120152505D01*
X82898032Y-120172821D01*
X83054784Y-120210454D01*
X83054790Y-120210455D01*
X83059597Y-120211609D01*
X83159416Y-120219465D01*
X83246345Y-120226307D01*
X83246352Y-120226307D01*
X83248801Y-120226500D01*
X83375199Y-120226500D01*
X83377648Y-120226307D01*
X83377655Y-120226307D01*
X83464584Y-120219465D01*
X83564403Y-120211609D01*
X83569210Y-120210455D01*
X83569216Y-120210454D01*
X83725968Y-120172821D01*
X83810591Y-120152505D01*
X83815164Y-120150611D01*
X84039928Y-120057511D01*
X84039932Y-120057509D01*
X84044502Y-120055616D01*
X84260376Y-119923328D01*
X84452898Y-119758898D01*
X84617328Y-119566376D01*
X84749616Y-119350502D01*
X84846505Y-119116591D01*
X84905609Y-118870403D01*
X84925474Y-118618000D01*
X110146526Y-118618000D01*
X110166391Y-118870403D01*
X110225495Y-119116591D01*
X110322384Y-119350502D01*
X110454672Y-119566376D01*
X110619102Y-119758898D01*
X110811624Y-119923328D01*
X111027498Y-120055616D01*
X111032068Y-120057509D01*
X111032072Y-120057511D01*
X111256836Y-120150611D01*
X111261409Y-120152505D01*
X111346032Y-120172821D01*
X111502784Y-120210454D01*
X111502790Y-120210455D01*
X111507597Y-120211609D01*
X111607416Y-120219465D01*
X111694345Y-120226307D01*
X111694352Y-120226307D01*
X111696801Y-120226500D01*
X111823199Y-120226500D01*
X111825648Y-120226307D01*
X111825655Y-120226307D01*
X111912584Y-120219465D01*
X112012403Y-120211609D01*
X112017210Y-120210455D01*
X112017216Y-120210454D01*
X112173968Y-120172821D01*
X112258591Y-120152505D01*
X112263164Y-120150611D01*
X112487928Y-120057511D01*
X112487932Y-120057509D01*
X112492502Y-120055616D01*
X112708376Y-119923328D01*
X112900898Y-119758898D01*
X113065328Y-119566376D01*
X113197616Y-119350502D01*
X113294505Y-119116591D01*
X113353609Y-118870403D01*
X113373474Y-118618000D01*
X113353609Y-118365597D01*
X113294505Y-118119409D01*
X113197616Y-117885498D01*
X113065328Y-117669624D01*
X112900898Y-117477102D01*
X112708376Y-117312672D01*
X112492502Y-117180384D01*
X112487932Y-117178491D01*
X112487928Y-117178489D01*
X112263164Y-117085389D01*
X112263162Y-117085388D01*
X112258591Y-117083495D01*
X112173968Y-117063179D01*
X112017216Y-117025546D01*
X112017210Y-117025545D01*
X112012403Y-117024391D01*
X111912584Y-117016535D01*
X111825655Y-117009693D01*
X111825648Y-117009693D01*
X111823199Y-117009500D01*
X111696801Y-117009500D01*
X111694352Y-117009693D01*
X111694345Y-117009693D01*
X111607416Y-117016535D01*
X111507597Y-117024391D01*
X111502790Y-117025545D01*
X111502784Y-117025546D01*
X111346032Y-117063179D01*
X111261409Y-117083495D01*
X111256838Y-117085388D01*
X111256836Y-117085389D01*
X111032072Y-117178489D01*
X111032068Y-117178491D01*
X111027498Y-117180384D01*
X110811624Y-117312672D01*
X110619102Y-117477102D01*
X110454672Y-117669624D01*
X110322384Y-117885498D01*
X110225495Y-118119409D01*
X110166391Y-118365597D01*
X110146526Y-118618000D01*
X84925474Y-118618000D01*
X84905609Y-118365597D01*
X84846505Y-118119409D01*
X84749616Y-117885498D01*
X84617328Y-117669624D01*
X84452898Y-117477102D01*
X84260376Y-117312672D01*
X84044502Y-117180384D01*
X84039932Y-117178491D01*
X84039928Y-117178489D01*
X83815164Y-117085389D01*
X83815162Y-117085388D01*
X83810591Y-117083495D01*
X83725968Y-117063179D01*
X83569216Y-117025546D01*
X83569210Y-117025545D01*
X83564403Y-117024391D01*
X83464584Y-117016535D01*
X83377655Y-117009693D01*
X83377648Y-117009693D01*
X83375199Y-117009500D01*
X83248801Y-117009500D01*
X83246352Y-117009693D01*
X83246345Y-117009693D01*
X83159416Y-117016535D01*
X83059597Y-117024391D01*
X83054790Y-117025545D01*
X83054784Y-117025546D01*
X82898032Y-117063179D01*
X82813409Y-117083495D01*
X82808838Y-117085388D01*
X82808836Y-117085389D01*
X82584072Y-117178489D01*
X82584068Y-117178491D01*
X82579498Y-117180384D01*
X82363624Y-117312672D01*
X82171102Y-117477102D01*
X82006672Y-117669624D01*
X81874384Y-117885498D01*
X81777495Y-118119409D01*
X81718391Y-118365597D01*
X81698526Y-118618000D01*
X80513729Y-118618000D01*
X80509773Y-118590376D01*
X80508500Y-118572514D01*
X80508500Y-106070400D01*
X95222596Y-106070400D01*
X95242558Y-106260328D01*
X95301573Y-106441956D01*
X95397060Y-106607344D01*
X95524847Y-106749266D01*
X95623943Y-106821264D01*
X95674004Y-106857635D01*
X95679348Y-106861518D01*
X95685376Y-106864202D01*
X95685378Y-106864203D01*
X95847781Y-106936509D01*
X95853812Y-106939194D01*
X95947213Y-106959047D01*
X96034156Y-106977528D01*
X96034161Y-106977528D01*
X96040613Y-106978900D01*
X96231587Y-106978900D01*
X96238039Y-106977528D01*
X96238044Y-106977528D01*
X96324987Y-106959047D01*
X96418388Y-106939194D01*
X96424419Y-106936509D01*
X96586822Y-106864203D01*
X96586824Y-106864202D01*
X96592852Y-106861518D01*
X96598191Y-106857639D01*
X96598198Y-106857635D01*
X96604628Y-106852963D01*
X96678687Y-106828900D01*
X98365013Y-106828900D01*
X98439072Y-106852963D01*
X98445502Y-106857635D01*
X98445509Y-106857639D01*
X98450848Y-106861518D01*
X98456876Y-106864202D01*
X98456878Y-106864203D01*
X98619281Y-106936509D01*
X98625312Y-106939194D01*
X98718713Y-106959047D01*
X98805656Y-106977528D01*
X98805661Y-106977528D01*
X98812113Y-106978900D01*
X99003087Y-106978900D01*
X99009539Y-106977528D01*
X99009544Y-106977528D01*
X99096487Y-106959047D01*
X99189888Y-106939194D01*
X99195919Y-106936509D01*
X99358322Y-106864203D01*
X99358324Y-106864202D01*
X99364352Y-106861518D01*
X99369697Y-106857635D01*
X99419757Y-106821264D01*
X99518853Y-106749266D01*
X99646640Y-106607344D01*
X99742127Y-106441956D01*
X99801142Y-106260328D01*
X99821104Y-106070400D01*
X99801142Y-105880472D01*
X99742127Y-105698844D01*
X99646640Y-105533456D01*
X99518853Y-105391534D01*
X99376127Y-105287837D01*
X99369694Y-105283163D01*
X99369693Y-105283162D01*
X99364352Y-105279282D01*
X99358324Y-105276598D01*
X99358322Y-105276597D01*
X99195919Y-105204291D01*
X99195918Y-105204291D01*
X99189888Y-105201606D01*
X99096487Y-105181753D01*
X99009544Y-105163272D01*
X99009539Y-105163272D01*
X99003087Y-105161900D01*
X98812113Y-105161900D01*
X98805661Y-105163272D01*
X98805656Y-105163272D01*
X98718713Y-105181753D01*
X98625312Y-105201606D01*
X98619282Y-105204291D01*
X98619281Y-105204291D01*
X98456878Y-105276597D01*
X98456876Y-105276598D01*
X98450848Y-105279282D01*
X98445509Y-105283161D01*
X98445502Y-105283165D01*
X98439072Y-105287837D01*
X98365013Y-105311900D01*
X96678687Y-105311900D01*
X96604628Y-105287837D01*
X96598198Y-105283165D01*
X96598191Y-105283161D01*
X96592852Y-105279282D01*
X96586824Y-105276598D01*
X96586822Y-105276597D01*
X96424419Y-105204291D01*
X96424418Y-105204291D01*
X96418388Y-105201606D01*
X96324987Y-105181753D01*
X96238044Y-105163272D01*
X96238039Y-105163272D01*
X96231587Y-105161900D01*
X96040613Y-105161900D01*
X96034161Y-105163272D01*
X96034156Y-105163272D01*
X95947213Y-105181753D01*
X95853812Y-105201606D01*
X95847782Y-105204291D01*
X95847781Y-105204291D01*
X95685378Y-105276597D01*
X95685376Y-105276598D01*
X95679348Y-105279282D01*
X95674007Y-105283162D01*
X95674006Y-105283163D01*
X95667573Y-105287837D01*
X95524847Y-105391534D01*
X95397060Y-105533456D01*
X95301573Y-105698844D01*
X95242558Y-105880472D01*
X95222596Y-106070400D01*
X80508500Y-106070400D01*
X80508500Y-90804000D01*
X80528502Y-90735879D01*
X80582158Y-90689386D01*
X80634500Y-90678000D01*
X114365500Y-90678000D01*
X114433621Y-90698002D01*
G37*
%TD.AperFunction*%
%TD*%
M02*
