%TF.GenerationSoftware,KiCad,Pcbnew,6.0.10-86aedd382b~118~ubuntu22.04.1*%
%TF.CreationDate,2023-02-07T20:01:53+01:00*%
%TF.ProjectId,ioBoard,696f426f-6172-4642-9e6b-696361645f70,rev?*%
%TF.SameCoordinates,Original*%
%TF.FileFunction,Legend,Bot*%
%TF.FilePolarity,Positive*%
%FSLAX46Y46*%
G04 Gerber Fmt 4.6, Leading zero omitted, Abs format (unit mm)*
G04 Created by KiCad (PCBNEW 6.0.10-86aedd382b~118~ubuntu22.04.1) date 2023-02-07 20:01:53*
%MOMM*%
%LPD*%
G01*
G04 APERTURE LIST*
%ADD10C,0.150000*%
%ADD11C,2.200000*%
%ADD12C,0.800000*%
G04 APERTURE END LIST*
D10*
X100845523Y-93627380D02*
X100845523Y-92627380D01*
X100178857Y-92627380D02*
X99988380Y-92627380D01*
X99893142Y-92675000D01*
X99797904Y-92770238D01*
X99750285Y-92960714D01*
X99750285Y-93294047D01*
X99797904Y-93484523D01*
X99893142Y-93579761D01*
X99988380Y-93627380D01*
X100178857Y-93627380D01*
X100274095Y-93579761D01*
X100369333Y-93484523D01*
X100416952Y-93294047D01*
X100416952Y-92960714D01*
X100369333Y-92770238D01*
X100274095Y-92675000D01*
X100178857Y-92627380D01*
X99321714Y-93246428D02*
X98559809Y-93246428D01*
X97750285Y-93103571D02*
X97607428Y-93151190D01*
X97559809Y-93198809D01*
X97512190Y-93294047D01*
X97512190Y-93436904D01*
X97559809Y-93532142D01*
X97607428Y-93579761D01*
X97702666Y-93627380D01*
X98083619Y-93627380D01*
X98083619Y-92627380D01*
X97750285Y-92627380D01*
X97655047Y-92675000D01*
X97607428Y-92722619D01*
X97559809Y-92817857D01*
X97559809Y-92913095D01*
X97607428Y-93008333D01*
X97655047Y-93055952D01*
X97750285Y-93103571D01*
X98083619Y-93103571D01*
X96940761Y-93627380D02*
X97036000Y-93579761D01*
X97083619Y-93532142D01*
X97131238Y-93436904D01*
X97131238Y-93151190D01*
X97083619Y-93055952D01*
X97036000Y-93008333D01*
X96940761Y-92960714D01*
X96797904Y-92960714D01*
X96702666Y-93008333D01*
X96655047Y-93055952D01*
X96607428Y-93151190D01*
X96607428Y-93436904D01*
X96655047Y-93532142D01*
X96702666Y-93579761D01*
X96797904Y-93627380D01*
X96940761Y-93627380D01*
X95750285Y-93627380D02*
X95750285Y-93103571D01*
X95797904Y-93008333D01*
X95893142Y-92960714D01*
X96083619Y-92960714D01*
X96178857Y-93008333D01*
X95750285Y-93579761D02*
X95845523Y-93627380D01*
X96083619Y-93627380D01*
X96178857Y-93579761D01*
X96226476Y-93484523D01*
X96226476Y-93389285D01*
X96178857Y-93294047D01*
X96083619Y-93246428D01*
X95845523Y-93246428D01*
X95750285Y-93198809D01*
X95274095Y-93627380D02*
X95274095Y-92960714D01*
X95274095Y-93151190D02*
X95226476Y-93055952D01*
X95178857Y-93008333D01*
X95083619Y-92960714D01*
X94988380Y-92960714D01*
X94226476Y-93627380D02*
X94226476Y-92627380D01*
X94226476Y-93579761D02*
X94321714Y-93627380D01*
X94512190Y-93627380D01*
X94607428Y-93579761D01*
X94655047Y-93532142D01*
X94702666Y-93436904D01*
X94702666Y-93151190D01*
X94655047Y-93055952D01*
X94607428Y-93008333D01*
X94512190Y-92960714D01*
X94321714Y-92960714D01*
X94226476Y-93008333D01*
X99202666Y-94570714D02*
X98964571Y-95237380D01*
X98726476Y-94570714D01*
X98345523Y-95142142D02*
X98297904Y-95189761D01*
X98345523Y-95237380D01*
X98393142Y-95189761D01*
X98345523Y-95142142D01*
X98345523Y-95237380D01*
X97678857Y-94237380D02*
X97583619Y-94237380D01*
X97488380Y-94285000D01*
X97440761Y-94332619D01*
X97393142Y-94427857D01*
X97345523Y-94618333D01*
X97345523Y-94856428D01*
X97393142Y-95046904D01*
X97440761Y-95142142D01*
X97488380Y-95189761D01*
X97583619Y-95237380D01*
X97678857Y-95237380D01*
X97774095Y-95189761D01*
X97821714Y-95142142D01*
X97869333Y-95046904D01*
X97916952Y-94856428D01*
X97916952Y-94618333D01*
X97869333Y-94427857D01*
X97821714Y-94332619D01*
X97774095Y-94285000D01*
X97678857Y-94237380D01*
X96916952Y-95142142D02*
X96869333Y-95189761D01*
X96916952Y-95237380D01*
X96964571Y-95189761D01*
X96916952Y-95142142D01*
X96916952Y-95237380D01*
X96393142Y-95237380D02*
X96202666Y-95237380D01*
X96107428Y-95189761D01*
X96059809Y-95142142D01*
X95964571Y-94999285D01*
X95916952Y-94808809D01*
X95916952Y-94427857D01*
X95964571Y-94332619D01*
X96012190Y-94285000D01*
X96107428Y-94237380D01*
X96297904Y-94237380D01*
X96393142Y-94285000D01*
X96440761Y-94332619D01*
X96488380Y-94427857D01*
X96488380Y-94665952D01*
X96440761Y-94761190D01*
X96393142Y-94808809D01*
X96297904Y-94856428D01*
X96107428Y-94856428D01*
X96012190Y-94808809D01*
X95964571Y-94761190D01*
X95916952Y-94665952D01*
%LPC*%
D11*
%TO.C,H4*%
X111760000Y-83312000D03*
%TD*%
%TO.C,H3*%
X83312000Y-83312000D03*
%TD*%
%TO.C,H2*%
X83312000Y-118618000D03*
%TD*%
%TO.C,H1*%
X111760000Y-118618000D03*
%TD*%
D12*
X86512400Y-115773200D03*
X87113200Y-104024165D03*
X86106000Y-91694000D03*
X84836000Y-106883200D03*
X110083600Y-106883200D03*
X88535600Y-104024165D03*
X95910400Y-114858800D03*
X84624000Y-104024165D03*
X85894000Y-104024165D03*
X108356400Y-115824000D03*
X104546400Y-99720400D03*
X94996000Y-114858800D03*
X98907600Y-106070400D03*
X96136100Y-106070400D03*
M02*
