%TF.GenerationSoftware,KiCad,Pcbnew,6.0.10-86aedd382b~118~ubuntu22.04.1*%
%TF.CreationDate,2023-02-07T19:31:44+01:00*%
%TF.ProjectId,connectorBoard,636f6e6e-6563-4746-9f72-426f6172642e,rev?*%
%TF.SameCoordinates,Original*%
%TF.FileFunction,Copper,L1,Top*%
%TF.FilePolarity,Positive*%
%FSLAX46Y46*%
G04 Gerber Fmt 4.6, Leading zero omitted, Abs format (unit mm)*
G04 Created by KiCad (PCBNEW 6.0.10-86aedd382b~118~ubuntu22.04.1) date 2023-02-07 19:31:44*
%MOMM*%
%LPD*%
G01*
G04 APERTURE LIST*
G04 Aperture macros list*
%AMRoundRect*
0 Rectangle with rounded corners*
0 $1 Rounding radius*
0 $2 $3 $4 $5 $6 $7 $8 $9 X,Y pos of 4 corners*
0 Add a 4 corners polygon primitive as box body*
4,1,4,$2,$3,$4,$5,$6,$7,$8,$9,$2,$3,0*
0 Add four circle primitives for the rounded corners*
1,1,$1+$1,$2,$3*
1,1,$1+$1,$4,$5*
1,1,$1+$1,$6,$7*
1,1,$1+$1,$8,$9*
0 Add four rect primitives between the rounded corners*
20,1,$1+$1,$2,$3,$4,$5,0*
20,1,$1+$1,$4,$5,$6,$7,0*
20,1,$1+$1,$6,$7,$8,$9,0*
20,1,$1+$1,$8,$9,$2,$3,0*%
G04 Aperture macros list end*
%TA.AperFunction,SMDPad,CuDef*%
%ADD10RoundRect,0.150000X0.700000X-0.150000X0.700000X0.150000X-0.700000X0.150000X-0.700000X-0.150000X0*%
%TD*%
%TA.AperFunction,SMDPad,CuDef*%
%ADD11RoundRect,0.250000X1.100000X-0.250000X1.100000X0.250000X-1.100000X0.250000X-1.100000X-0.250000X0*%
%TD*%
%TA.AperFunction,SMDPad,CuDef*%
%ADD12R,0.500000X0.500000*%
%TD*%
%TA.AperFunction,SMDPad,CuDef*%
%ADD13R,0.700000X0.500000*%
%TD*%
%TA.AperFunction,ComponentPad*%
%ADD14R,1.700000X1.700000*%
%TD*%
%TA.AperFunction,ComponentPad*%
%ADD15O,1.700000X1.700000*%
%TD*%
%TA.AperFunction,Conductor*%
%ADD16C,0.500000*%
%TD*%
G04 APERTURE END LIST*
D10*
%TO.P,J2,1,Pin_1*%
%TO.N,/C-Data*%
X196143000Y-96246000D03*
%TO.P,J2,2,Pin_2*%
%TO.N,GND*%
X196143000Y-94996000D03*
%TO.P,J2,3,Pin_3*%
%TO.N,VCC*%
X196143000Y-93746000D03*
D11*
%TO.P,J2,MP*%
%TO.N,N/C*%
X199343000Y-98096000D03*
X199343000Y-91896000D03*
%TD*%
D12*
%TO.P,D1,1,K*%
%TO.N,VCC*%
X192616000Y-93726000D03*
%TO.P,D1,2,A*%
%TO.N,Net-(D1-Pad2)*%
X190416000Y-93726000D03*
%TD*%
D13*
%TO.P,D3,1,K*%
%TO.N,Net-(D1-Pad2)*%
X186436000Y-98895000D03*
%TO.P,D3,2,A*%
%TO.N,GND*%
X186436000Y-99695000D03*
%TD*%
%TO.P,D2,1,A1*%
%TO.N,GND*%
X186436000Y-103105000D03*
%TO.P,D2,2,A2*%
%TO.N,/C-Data*%
X186436000Y-103905000D03*
%TD*%
D14*
%TO.P,J1,1,Pin_1*%
%TO.N,unconnected-(J1-Pad1)*%
X183490000Y-86121000D03*
D15*
%TO.P,J1,2,Pin_2*%
%TO.N,unconnected-(J1-Pad2)*%
X183490000Y-88661000D03*
%TO.P,J1,3,Pin_3*%
%TO.N,unconnected-(J1-Pad3)*%
X183490000Y-91201000D03*
%TO.P,J1,4,Pin_4*%
%TO.N,unconnected-(J1-Pad4)*%
X183490000Y-93741000D03*
%TO.P,J1,5,Pin_5*%
%TO.N,unconnected-(J1-Pad5)*%
X183490000Y-96281000D03*
%TO.P,J1,6,Pin_6*%
%TO.N,Net-(D1-Pad2)*%
X183490000Y-98821000D03*
%TO.P,J1,7,Pin_7*%
%TO.N,GND*%
X183490000Y-101361000D03*
%TO.P,J1,8,Pin_8*%
%TO.N,/C-Data*%
X183490000Y-103901000D03*
%TD*%
D16*
%TO.N,VCC*%
X196123000Y-93726000D02*
X196143000Y-93746000D01*
X192616000Y-93726000D02*
X196123000Y-93726000D01*
%TO.N,GND*%
X196143000Y-94996000D02*
X193675000Y-94996000D01*
X187310000Y-101361000D02*
X186197000Y-101361000D01*
X186436000Y-99695000D02*
X186436000Y-101600000D01*
X186436000Y-101600000D02*
X186197000Y-101361000D01*
X193675000Y-94996000D02*
X187310000Y-101361000D01*
X186197000Y-101361000D02*
X183490000Y-101361000D01*
X186436000Y-103105000D02*
X186436000Y-101600000D01*
%TO.N,/C-Data*%
X196143000Y-96246000D02*
X194838000Y-96246000D01*
X194838000Y-96246000D02*
X187183000Y-103901000D01*
X187183000Y-103901000D02*
X183490000Y-103901000D01*
%TO.N,Net-(D1-Pad2)*%
X183490000Y-98821000D02*
X187321000Y-98821000D01*
X187325000Y-98825000D02*
X188175000Y-98825000D01*
X187321000Y-98821000D02*
X187325000Y-98825000D01*
X188175000Y-98825000D02*
X190416000Y-96584000D01*
X190416000Y-93726000D02*
X190416000Y-96584000D01*
%TD*%
M02*
