%TF.GenerationSoftware,KiCad,Pcbnew,6.0.10-86aedd382b~118~ubuntu22.04.1*%
%TF.CreationDate,2023-02-07T19:31:44+01:00*%
%TF.ProjectId,connectorBoard,636f6e6e-6563-4746-9f72-426f6172642e,rev?*%
%TF.SameCoordinates,Original*%
%TF.FileFunction,Legend,Bot*%
%TF.FilePolarity,Positive*%
%FSLAX46Y46*%
G04 Gerber Fmt 4.6, Leading zero omitted, Abs format (unit mm)*
G04 Created by KiCad (PCBNEW 6.0.10-86aedd382b~118~ubuntu22.04.1) date 2023-02-07 19:31:44*
%MOMM*%
%LPD*%
G01*
G04 APERTURE LIST*
%ADD10C,0.150000*%
%ADD11C,0.120000*%
%ADD12C,2.200000*%
%ADD13R,1.700000X1.700000*%
%ADD14O,1.700000X1.700000*%
G04 APERTURE END LIST*
D10*
X198688142Y-89924571D02*
X198735761Y-89876952D01*
X198783380Y-89734095D01*
X198783380Y-89638857D01*
X198735761Y-89496000D01*
X198640523Y-89400761D01*
X198545285Y-89353142D01*
X198354809Y-89305523D01*
X198211952Y-89305523D01*
X198021476Y-89353142D01*
X197926238Y-89400761D01*
X197831000Y-89496000D01*
X197783380Y-89638857D01*
X197783380Y-89734095D01*
X197831000Y-89876952D01*
X197878619Y-89924571D01*
X198783380Y-90496000D02*
X198735761Y-90400761D01*
X198688142Y-90353142D01*
X198592904Y-90305523D01*
X198307190Y-90305523D01*
X198211952Y-90353142D01*
X198164333Y-90400761D01*
X198116714Y-90496000D01*
X198116714Y-90638857D01*
X198164333Y-90734095D01*
X198211952Y-90781714D01*
X198307190Y-90829333D01*
X198592904Y-90829333D01*
X198688142Y-90781714D01*
X198735761Y-90734095D01*
X198783380Y-90638857D01*
X198783380Y-90496000D01*
X198116714Y-91257904D02*
X198783380Y-91257904D01*
X198211952Y-91257904D02*
X198164333Y-91305523D01*
X198116714Y-91400761D01*
X198116714Y-91543619D01*
X198164333Y-91638857D01*
X198259571Y-91686476D01*
X198783380Y-91686476D01*
X198116714Y-92162666D02*
X198783380Y-92162666D01*
X198211952Y-92162666D02*
X198164333Y-92210285D01*
X198116714Y-92305523D01*
X198116714Y-92448380D01*
X198164333Y-92543619D01*
X198259571Y-92591238D01*
X198783380Y-92591238D01*
X198735761Y-93448380D02*
X198783380Y-93353142D01*
X198783380Y-93162666D01*
X198735761Y-93067428D01*
X198640523Y-93019809D01*
X198259571Y-93019809D01*
X198164333Y-93067428D01*
X198116714Y-93162666D01*
X198116714Y-93353142D01*
X198164333Y-93448380D01*
X198259571Y-93496000D01*
X198354809Y-93496000D01*
X198450047Y-93019809D01*
X198735761Y-94353142D02*
X198783380Y-94257904D01*
X198783380Y-94067428D01*
X198735761Y-93972190D01*
X198688142Y-93924571D01*
X198592904Y-93876952D01*
X198307190Y-93876952D01*
X198211952Y-93924571D01*
X198164333Y-93972190D01*
X198116714Y-94067428D01*
X198116714Y-94257904D01*
X198164333Y-94353142D01*
X198116714Y-94638857D02*
X198116714Y-95019809D01*
X197783380Y-94781714D02*
X198640523Y-94781714D01*
X198735761Y-94829333D01*
X198783380Y-94924571D01*
X198783380Y-95019809D01*
X198783380Y-95496000D02*
X198735761Y-95400761D01*
X198688142Y-95353142D01*
X198592904Y-95305523D01*
X198307190Y-95305523D01*
X198211952Y-95353142D01*
X198164333Y-95400761D01*
X198116714Y-95496000D01*
X198116714Y-95638857D01*
X198164333Y-95734095D01*
X198211952Y-95781714D01*
X198307190Y-95829333D01*
X198592904Y-95829333D01*
X198688142Y-95781714D01*
X198735761Y-95734095D01*
X198783380Y-95638857D01*
X198783380Y-95496000D01*
X198783380Y-96257904D02*
X198116714Y-96257904D01*
X198307190Y-96257904D02*
X198211952Y-96305523D01*
X198164333Y-96353142D01*
X198116714Y-96448380D01*
X198116714Y-96543619D01*
X198783380Y-96876952D02*
X197783380Y-96876952D01*
X198164333Y-96876952D02*
X198116714Y-96972190D01*
X198116714Y-97162666D01*
X198164333Y-97257904D01*
X198211952Y-97305523D01*
X198307190Y-97353142D01*
X198592904Y-97353142D01*
X198688142Y-97305523D01*
X198735761Y-97257904D01*
X198783380Y-97162666D01*
X198783380Y-96972190D01*
X198735761Y-96876952D01*
X198783380Y-97924571D02*
X198735761Y-97829333D01*
X198688142Y-97781714D01*
X198592904Y-97734095D01*
X198307190Y-97734095D01*
X198211952Y-97781714D01*
X198164333Y-97829333D01*
X198116714Y-97924571D01*
X198116714Y-98067428D01*
X198164333Y-98162666D01*
X198211952Y-98210285D01*
X198307190Y-98257904D01*
X198592904Y-98257904D01*
X198688142Y-98210285D01*
X198735761Y-98162666D01*
X198783380Y-98067428D01*
X198783380Y-97924571D01*
X198783380Y-99115047D02*
X198259571Y-99115047D01*
X198164333Y-99067428D01*
X198116714Y-98972190D01*
X198116714Y-98781714D01*
X198164333Y-98686476D01*
X198735761Y-99115047D02*
X198783380Y-99019809D01*
X198783380Y-98781714D01*
X198735761Y-98686476D01*
X198640523Y-98638857D01*
X198545285Y-98638857D01*
X198450047Y-98686476D01*
X198402428Y-98781714D01*
X198402428Y-99019809D01*
X198354809Y-99115047D01*
X198783380Y-99591238D02*
X198116714Y-99591238D01*
X198307190Y-99591238D02*
X198211952Y-99638857D01*
X198164333Y-99686476D01*
X198116714Y-99781714D01*
X198116714Y-99876952D01*
X198783380Y-100638857D02*
X197783380Y-100638857D01*
X198735761Y-100638857D02*
X198783380Y-100543619D01*
X198783380Y-100353142D01*
X198735761Y-100257904D01*
X198688142Y-100210285D01*
X198592904Y-100162666D01*
X198307190Y-100162666D01*
X198211952Y-100210285D01*
X198164333Y-100257904D01*
X198116714Y-100353142D01*
X198116714Y-100543619D01*
X198164333Y-100638857D01*
X199726714Y-93567428D02*
X200393380Y-93805523D01*
X199726714Y-94043619D01*
X199393380Y-94615047D02*
X199393380Y-94710285D01*
X199441000Y-94805523D01*
X199488619Y-94853142D01*
X199583857Y-94900761D01*
X199774333Y-94948380D01*
X200012428Y-94948380D01*
X200202904Y-94900761D01*
X200298142Y-94853142D01*
X200345761Y-94805523D01*
X200393380Y-94710285D01*
X200393380Y-94615047D01*
X200345761Y-94519809D01*
X200298142Y-94472190D01*
X200202904Y-94424571D01*
X200012428Y-94376952D01*
X199774333Y-94376952D01*
X199583857Y-94424571D01*
X199488619Y-94472190D01*
X199441000Y-94519809D01*
X199393380Y-94615047D01*
X200298142Y-95376952D02*
X200345761Y-95424571D01*
X200393380Y-95376952D01*
X200345761Y-95329333D01*
X200298142Y-95376952D01*
X200393380Y-95376952D01*
X200393380Y-95900761D02*
X200393380Y-96091238D01*
X200345761Y-96186476D01*
X200298142Y-96234095D01*
X200155285Y-96329333D01*
X199964809Y-96376952D01*
X199583857Y-96376952D01*
X199488619Y-96329333D01*
X199441000Y-96281714D01*
X199393380Y-96186476D01*
X199393380Y-95996000D01*
X199441000Y-95900761D01*
X199488619Y-95853142D01*
X199583857Y-95805523D01*
X199821952Y-95805523D01*
X199917190Y-95853142D01*
X199964809Y-95900761D01*
X200012428Y-95996000D01*
X200012428Y-96186476D01*
X199964809Y-96281714D01*
X199917190Y-96329333D01*
X199821952Y-96376952D01*
X186793142Y-87694380D02*
X186840761Y-87646761D01*
X186888380Y-87503904D01*
X186888380Y-87408666D01*
X186840761Y-87265809D01*
X186745523Y-87170571D01*
X186650285Y-87122952D01*
X186459809Y-87075333D01*
X186316952Y-87075333D01*
X186126476Y-87122952D01*
X186031238Y-87170571D01*
X185936000Y-87265809D01*
X185888380Y-87408666D01*
X185888380Y-87503904D01*
X185936000Y-87646761D01*
X185983619Y-87694380D01*
X186888380Y-88265809D02*
X186840761Y-88170571D01*
X186793142Y-88122952D01*
X186697904Y-88075333D01*
X186412190Y-88075333D01*
X186316952Y-88122952D01*
X186269333Y-88170571D01*
X186221714Y-88265809D01*
X186221714Y-88408666D01*
X186269333Y-88503904D01*
X186316952Y-88551523D01*
X186412190Y-88599142D01*
X186697904Y-88599142D01*
X186793142Y-88551523D01*
X186840761Y-88503904D01*
X186888380Y-88408666D01*
X186888380Y-88265809D01*
X186221714Y-89027714D02*
X186888380Y-89027714D01*
X186316952Y-89027714D02*
X186269333Y-89075333D01*
X186221714Y-89170571D01*
X186221714Y-89313428D01*
X186269333Y-89408666D01*
X186364571Y-89456285D01*
X186888380Y-89456285D01*
X186221714Y-89789619D02*
X186221714Y-90170571D01*
X185888380Y-89932476D02*
X186745523Y-89932476D01*
X186840761Y-89980095D01*
X186888380Y-90075333D01*
X186888380Y-90170571D01*
X186888380Y-90503904D02*
X186221714Y-90503904D01*
X186412190Y-90503904D02*
X186316952Y-90551523D01*
X186269333Y-90599142D01*
X186221714Y-90694380D01*
X186221714Y-90789619D01*
X186888380Y-91265809D02*
X186840761Y-91170571D01*
X186793142Y-91122952D01*
X186697904Y-91075333D01*
X186412190Y-91075333D01*
X186316952Y-91122952D01*
X186269333Y-91170571D01*
X186221714Y-91265809D01*
X186221714Y-91408666D01*
X186269333Y-91503904D01*
X186316952Y-91551523D01*
X186412190Y-91599142D01*
X186697904Y-91599142D01*
X186793142Y-91551523D01*
X186840761Y-91503904D01*
X186888380Y-91408666D01*
X186888380Y-91265809D01*
X186888380Y-92170571D02*
X186840761Y-92075333D01*
X186745523Y-92027714D01*
X185888380Y-92027714D01*
X186888380Y-92694380D02*
X186840761Y-92599142D01*
X186745523Y-92551523D01*
X185888380Y-92551523D01*
X186840761Y-93456285D02*
X186888380Y-93361047D01*
X186888380Y-93170571D01*
X186840761Y-93075333D01*
X186745523Y-93027714D01*
X186364571Y-93027714D01*
X186269333Y-93075333D01*
X186221714Y-93170571D01*
X186221714Y-93361047D01*
X186269333Y-93456285D01*
X186364571Y-93503904D01*
X186459809Y-93503904D01*
X186555047Y-93027714D01*
X186888380Y-93932476D02*
X186221714Y-93932476D01*
X186412190Y-93932476D02*
X186316952Y-93980095D01*
X186269333Y-94027714D01*
X186221714Y-94122952D01*
X186221714Y-94218190D01*
X186793142Y-95884857D02*
X186840761Y-95837238D01*
X186888380Y-95694380D01*
X186888380Y-95599142D01*
X186840761Y-95456285D01*
X186745523Y-95361047D01*
X186650285Y-95313428D01*
X186459809Y-95265809D01*
X186316952Y-95265809D01*
X186126476Y-95313428D01*
X186031238Y-95361047D01*
X185936000Y-95456285D01*
X185888380Y-95599142D01*
X185888380Y-95694380D01*
X185936000Y-95837238D01*
X185983619Y-95884857D01*
X186888380Y-96456285D02*
X186840761Y-96361047D01*
X186793142Y-96313428D01*
X186697904Y-96265809D01*
X186412190Y-96265809D01*
X186316952Y-96313428D01*
X186269333Y-96361047D01*
X186221714Y-96456285D01*
X186221714Y-96599142D01*
X186269333Y-96694380D01*
X186316952Y-96742000D01*
X186412190Y-96789619D01*
X186697904Y-96789619D01*
X186793142Y-96742000D01*
X186840761Y-96694380D01*
X186888380Y-96599142D01*
X186888380Y-96456285D01*
X186221714Y-97218190D02*
X186888380Y-97218190D01*
X186316952Y-97218190D02*
X186269333Y-97265809D01*
X186221714Y-97361047D01*
X186221714Y-97503904D01*
X186269333Y-97599142D01*
X186364571Y-97646761D01*
X186888380Y-97646761D01*
X186221714Y-98122952D02*
X186888380Y-98122952D01*
X186316952Y-98122952D02*
X186269333Y-98170571D01*
X186221714Y-98265809D01*
X186221714Y-98408666D01*
X186269333Y-98503904D01*
X186364571Y-98551523D01*
X186888380Y-98551523D01*
X186840761Y-99408666D02*
X186888380Y-99313428D01*
X186888380Y-99122952D01*
X186840761Y-99027714D01*
X186745523Y-98980095D01*
X186364571Y-98980095D01*
X186269333Y-99027714D01*
X186221714Y-99122952D01*
X186221714Y-99313428D01*
X186269333Y-99408666D01*
X186364571Y-99456285D01*
X186459809Y-99456285D01*
X186555047Y-98980095D01*
X186840761Y-100313428D02*
X186888380Y-100218190D01*
X186888380Y-100027714D01*
X186840761Y-99932476D01*
X186793142Y-99884857D01*
X186697904Y-99837238D01*
X186412190Y-99837238D01*
X186316952Y-99884857D01*
X186269333Y-99932476D01*
X186221714Y-100027714D01*
X186221714Y-100218190D01*
X186269333Y-100313428D01*
X186221714Y-100599142D02*
X186221714Y-100980095D01*
X185888380Y-100742000D02*
X186745523Y-100742000D01*
X186840761Y-100789619D01*
X186888380Y-100884857D01*
X186888380Y-100980095D01*
X186888380Y-101456285D02*
X186840761Y-101361047D01*
X186793142Y-101313428D01*
X186697904Y-101265809D01*
X186412190Y-101265809D01*
X186316952Y-101313428D01*
X186269333Y-101361047D01*
X186221714Y-101456285D01*
X186221714Y-101599142D01*
X186269333Y-101694380D01*
X186316952Y-101742000D01*
X186412190Y-101789619D01*
X186697904Y-101789619D01*
X186793142Y-101742000D01*
X186840761Y-101694380D01*
X186888380Y-101599142D01*
X186888380Y-101456285D01*
X186888380Y-102218190D02*
X186221714Y-102218190D01*
X186412190Y-102218190D02*
X186316952Y-102265809D01*
X186269333Y-102313428D01*
X186221714Y-102408666D01*
X186221714Y-102503904D01*
D11*
%TO.C,J1*%
X184820000Y-87391000D02*
X182160000Y-87391000D01*
X184820000Y-87391000D02*
X184820000Y-105231000D01*
X184820000Y-105231000D02*
X182160000Y-105231000D01*
X182160000Y-84791000D02*
X182160000Y-86121000D01*
X183490000Y-84791000D02*
X182160000Y-84791000D01*
X182160000Y-87391000D02*
X182160000Y-105231000D01*
%TD*%
%LPC*%
D12*
%TO.C,H2*%
X191389000Y-83312000D03*
%TD*%
%TO.C,H1*%
X191389000Y-106680000D03*
%TD*%
D13*
%TO.C,J1*%
X183490000Y-86121000D03*
D14*
X183490000Y-88661000D03*
X183490000Y-91201000D03*
X183490000Y-93741000D03*
X183490000Y-96281000D03*
X183490000Y-98821000D03*
X183490000Y-101361000D03*
X183490000Y-103901000D03*
%TD*%
M02*
