M48
; DRILL file {KiCad 6.0.10-86aedd382b~118~ubuntu22.04.1} date Thu 09 Feb 2023 07:40:42 AM CET
; FORMAT={-:-/ absolute / inch / decimal}
; #@! TF.CreationDate,2023-02-09T07:40:42+01:00
; #@! TF.GenerationSoftware,Kicad,Pcbnew,6.0.10-86aedd382b~118~ubuntu22.04.1
; #@! TF.FileFunction,Plated,1,2,PTH
FMAT,2
INCH
; #@! TA.AperFunction,Plated,PTH,ViaDrill
T1C0.0157
; #@! TA.AperFunction,Plated,PTH,ComponentDrill
T2C0.0335
%
G90
G05
T1
X3.246Y-2.858
X3.2814Y-2.568
X3.312Y-3.238
X3.324Y-2.858
X3.3514Y-2.578
X3.356Y-3.224
X3.428Y-2.858
X3.442Y-3.048
X3.444Y-3.174
X3.444Y-3.746
X3.522Y-3.4171
X3.5227Y-3.3279
X3.538Y-3.174
X3.54Y-3.046
X3.552Y-3.932
X3.56Y-2.262
X3.56Y-3.3876
X3.562Y-3.3286
X3.608Y-2.86
X3.616Y-2.906
X3.674Y-2.512
X3.674Y-2.622
X3.676Y-2.566
X3.716Y-3.244
X3.726Y-2.468
X3.726Y-2.67
X3.7484Y-3.3719
X3.7484Y-3.4481
X3.78Y-2.67
X3.782Y-2.468
X3.82Y-3.698
X3.8292Y-3.2594
X3.836Y-2.468
X3.836Y-2.672
X3.856Y-3.698
X3.868Y-2.764
X3.888Y-2.512
X3.888Y-2.566
X3.888Y-2.622
X3.888Y-3.234
X3.892Y-3.632
X3.9Y-2.728
X3.954Y-3.32
X3.982Y-3.484
X3.984Y-3.448
X3.9854Y-3.632
X3.99Y-3.318
X4.0Y-2.766
X4.036Y-2.728
X4.116Y-2.728
X4.116Y-2.768
X4.122Y-2.262
X4.124Y-3.938
X4.146Y-3.01
X4.1928Y-3.0788
X4.232Y-3.754
X4.386Y-2.728
X4.386Y-2.768
X4.4108Y-3.3988
X4.434Y-3.689
T2
X3.372Y-2.732
T0
M30
