%TF.GenerationSoftware,KiCad,Pcbnew,6.0.10-86aedd382b~118~ubuntu22.04.1*%
%TF.CreationDate,2023-02-07T20:32:30+01:00*%
%TF.ProjectId,mainBoard,6d61696e-426f-4617-9264-2e6b69636164,rev?*%
%TF.SameCoordinates,Original*%
%TF.FileFunction,Soldermask,Top*%
%TF.FilePolarity,Negative*%
%FSLAX46Y46*%
G04 Gerber Fmt 4.6, Leading zero omitted, Abs format (unit mm)*
G04 Created by KiCad (PCBNEW 6.0.10-86aedd382b~118~ubuntu22.04.1) date 2023-02-07 20:32:30*
%MOMM*%
%LPD*%
G01*
G04 APERTURE LIST*
G04 Aperture macros list*
%AMRoundRect*
0 Rectangle with rounded corners*
0 $1 Rounding radius*
0 $2 $3 $4 $5 $6 $7 $8 $9 X,Y pos of 4 corners*
0 Add a 4 corners polygon primitive as box body*
4,1,4,$2,$3,$4,$5,$6,$7,$8,$9,$2,$3,0*
0 Add four circle primitives for the rounded corners*
1,1,$1+$1,$2,$3*
1,1,$1+$1,$4,$5*
1,1,$1+$1,$6,$7*
1,1,$1+$1,$8,$9*
0 Add four rect primitives between the rounded corners*
20,1,$1+$1,$2,$3,$4,$5,0*
20,1,$1+$1,$4,$5,$6,$7,0*
20,1,$1+$1,$6,$7,$8,$9,0*
20,1,$1+$1,$8,$9,$2,$3,0*%
G04 Aperture macros list end*
%ADD10RoundRect,0.150000X0.700000X-0.150000X0.700000X0.150000X-0.700000X0.150000X-0.700000X-0.150000X0*%
%ADD11RoundRect,0.250000X1.150000X-0.250000X1.150000X0.250000X-1.150000X0.250000X-1.150000X-0.250000X0*%
%ADD12RoundRect,0.155000X0.155000X-0.212500X0.155000X0.212500X-0.155000X0.212500X-0.155000X-0.212500X0*%
%ADD13RoundRect,0.150000X-0.512500X-0.150000X0.512500X-0.150000X0.512500X0.150000X-0.512500X0.150000X0*%
%ADD14RoundRect,0.250000X-0.750000X-0.750000X0.750000X-0.750000X0.750000X0.750000X-0.750000X0.750000X0*%
%ADD15RoundRect,0.250000X-0.250000X-0.475000X0.250000X-0.475000X0.250000X0.475000X-0.250000X0.475000X0*%
%ADD16C,2.200000*%
%ADD17R,0.500000X0.500000*%
%ADD18RoundRect,0.250000X-0.475000X0.250000X-0.475000X-0.250000X0.475000X-0.250000X0.475000X0.250000X0*%
%ADD19RoundRect,0.135000X-0.135000X-0.185000X0.135000X-0.185000X0.135000X0.185000X-0.135000X0.185000X0*%
%ADD20RoundRect,0.140000X-0.140000X-0.170000X0.140000X-0.170000X0.140000X0.170000X-0.140000X0.170000X0*%
%ADD21RoundRect,0.218750X0.256250X-0.218750X0.256250X0.218750X-0.256250X0.218750X-0.256250X-0.218750X0*%
%ADD22RoundRect,0.135000X-0.185000X0.135000X-0.185000X-0.135000X0.185000X-0.135000X0.185000X0.135000X0*%
%ADD23RoundRect,0.135000X0.185000X-0.135000X0.185000X0.135000X-0.185000X0.135000X-0.185000X-0.135000X0*%
%ADD24RoundRect,0.250000X0.250000X0.475000X-0.250000X0.475000X-0.250000X-0.475000X0.250000X-0.475000X0*%
%ADD25RoundRect,0.150000X-0.700000X0.150000X-0.700000X-0.150000X0.700000X-0.150000X0.700000X0.150000X0*%
%ADD26RoundRect,0.250000X-1.150000X0.250000X-1.150000X-0.250000X1.150000X-0.250000X1.150000X0.250000X0*%
%ADD27RoundRect,0.150000X-0.150000X-0.700000X0.150000X-0.700000X0.150000X0.700000X-0.150000X0.700000X0*%
%ADD28RoundRect,0.250000X-0.250000X-1.100000X0.250000X-1.100000X0.250000X1.100000X-0.250000X1.100000X0*%
%ADD29R,1.500000X0.900000*%
%ADD30R,0.900000X1.500000*%
%ADD31R,0.900000X0.900000*%
%ADD32R,1.500000X1.500000*%
%ADD33RoundRect,0.150000X0.512500X0.150000X-0.512500X0.150000X-0.512500X-0.150000X0.512500X-0.150000X0*%
%ADD34R,1.500000X2.000000*%
%ADD35R,3.800000X2.000000*%
%ADD36C,0.800000*%
G04 APERTURE END LIST*
D10*
%TO.C,J2*%
X113710000Y-87580000D03*
X113710000Y-86330000D03*
X113710000Y-85080000D03*
X113710000Y-83830000D03*
X113710000Y-82580000D03*
X113710000Y-81330000D03*
D11*
X110360000Y-79480000D03*
X110360000Y-89430000D03*
%TD*%
D12*
%TO.C,C6*%
X107492800Y-94090300D03*
X107492800Y-92955300D03*
%TD*%
D13*
%TO.C,Q1*%
X91928100Y-82717600D03*
X91928100Y-84617600D03*
X94203100Y-83667600D03*
%TD*%
D14*
%TO.C,J1*%
X85648800Y-69392800D03*
%TD*%
D15*
%TO.C,C4*%
X81330800Y-63500000D03*
X83230800Y-63500000D03*
%TD*%
D16*
%TO.C,H2*%
X83312000Y-97536000D03*
%TD*%
D17*
%TO.C,D2*%
X94064000Y-80619600D03*
X91864000Y-80619600D03*
%TD*%
D18*
%TO.C,C2*%
X98094800Y-79212400D03*
X98094800Y-81112400D03*
%TD*%
D19*
%TO.C,R2*%
X81363159Y-66674000D03*
X82383159Y-66674000D03*
%TD*%
D20*
%TO.C,C3*%
X84188400Y-66700400D03*
X85148400Y-66700400D03*
%TD*%
D21*
%TO.C,D1*%
X110947200Y-93649900D03*
X110947200Y-92074900D03*
%TD*%
D22*
%TO.C,R5*%
X107492800Y-90625200D03*
X107492800Y-91645200D03*
%TD*%
D16*
%TO.C,H1*%
X83312000Y-52070000D03*
%TD*%
D22*
%TO.C,R1*%
X112471200Y-91031600D03*
X112471200Y-92051600D03*
%TD*%
D23*
%TO.C,R3*%
X88442800Y-87581200D03*
X88442800Y-86561200D03*
%TD*%
D24*
%TO.C,C1*%
X104124800Y-88290400D03*
X102224800Y-88290400D03*
%TD*%
D16*
%TO.C,H4*%
X111760000Y-97536000D03*
%TD*%
D23*
%TO.C,R4*%
X88544400Y-85295200D03*
X88544400Y-84275200D03*
%TD*%
D20*
%TO.C,C5*%
X81343600Y-65278000D03*
X82303600Y-65278000D03*
%TD*%
D25*
%TO.C,J3*%
X81362000Y-81330000D03*
X81362000Y-82580000D03*
X81362000Y-83830000D03*
X81362000Y-85080000D03*
X81362000Y-86330000D03*
X81362000Y-87580000D03*
D26*
X84712000Y-89430000D03*
X84712000Y-79480000D03*
%TD*%
D12*
%TO.C,C7*%
X87426800Y-94039500D03*
X87426800Y-92904500D03*
%TD*%
D27*
%TO.C,J4*%
X96286000Y-95686000D03*
X97536000Y-95686000D03*
X98786000Y-95686000D03*
D28*
X100636000Y-98886000D03*
X94436000Y-98886000D03*
%TD*%
D29*
%TO.C,U2*%
X88786000Y-57482000D03*
X88786000Y-58752000D03*
X88786000Y-60022000D03*
X88786000Y-61292000D03*
X88786000Y-62562000D03*
X88786000Y-63832000D03*
X88786000Y-65102000D03*
X88786000Y-66372000D03*
X88786000Y-67642000D03*
X88786000Y-68912000D03*
X88786000Y-70182000D03*
X88786000Y-71452000D03*
X88786000Y-72722000D03*
X88786000Y-73992000D03*
D30*
X91816000Y-75242000D03*
X93086000Y-75242000D03*
X94356000Y-75242000D03*
X95626000Y-75242000D03*
X96896000Y-75242000D03*
X98166000Y-75242000D03*
X99436000Y-75242000D03*
X100706000Y-75242000D03*
X101976000Y-75242000D03*
X103246000Y-75242000D03*
D29*
X106286000Y-73992000D03*
X106286000Y-72722000D03*
X106286000Y-71452000D03*
X106286000Y-70182000D03*
X106286000Y-68912000D03*
X106286000Y-67642000D03*
X106286000Y-66372000D03*
X106286000Y-65102000D03*
X106286000Y-63832000D03*
X106286000Y-62562000D03*
X106286000Y-61292000D03*
X106286000Y-60022000D03*
X106286000Y-58752000D03*
X106286000Y-57482000D03*
D31*
X96036000Y-66602000D03*
X96036000Y-63802000D03*
X97436000Y-63802000D03*
X97436000Y-65202000D03*
X97436000Y-66602000D03*
X94636000Y-65202000D03*
X94636000Y-66602000D03*
X94636000Y-63802000D03*
X96036000Y-65202000D03*
%TD*%
D32*
%TO.C,SW1*%
X104800400Y-98388000D03*
X104800400Y-90588000D03*
%TD*%
D33*
%TO.C,Q2*%
X94152300Y-88529200D03*
X94152300Y-86629200D03*
X91877300Y-87579200D03*
%TD*%
D32*
%TO.C,SW2*%
X90170000Y-98388000D03*
X90170000Y-90588000D03*
%TD*%
D34*
%TO.C,U1*%
X101128800Y-85852400D03*
X103428800Y-85852400D03*
D35*
X103428800Y-79552400D03*
D34*
X105728800Y-85852400D03*
%TD*%
D22*
%TO.C,R6*%
X87426800Y-90625200D03*
X87426800Y-91645200D03*
%TD*%
D16*
%TO.C,H3*%
X111760000Y-52070000D03*
%TD*%
D36*
X94386400Y-82397600D03*
X97261500Y-82788850D03*
X101142800Y-88493600D03*
X93319600Y-66598800D03*
X90220800Y-99872800D03*
X87477600Y-95148400D03*
X101193600Y-87579200D03*
X112034800Y-86330000D03*
X93319600Y-63804800D03*
X98755200Y-82143600D03*
X97942400Y-93929200D03*
X84124800Y-82245200D03*
X97028000Y-93929200D03*
X97434400Y-62687200D03*
X90424000Y-57454800D03*
X104749600Y-100025200D03*
X98755200Y-63804800D03*
X101346000Y-84277200D03*
X85125600Y-65481200D03*
X91846400Y-73812400D03*
X96012000Y-67818000D03*
X98755200Y-66598800D03*
X85242400Y-81889600D03*
X100431600Y-84328000D03*
X94640400Y-62687200D03*
X96062800Y-62687200D03*
X107492800Y-95351600D03*
X94640400Y-67818000D03*
X97434400Y-67868800D03*
X112623600Y-93700700D03*
X93370400Y-65176400D03*
X104698800Y-57454800D03*
X98755200Y-65176400D03*
X83347600Y-65227200D03*
X105308400Y-76454000D03*
X84429600Y-72593200D03*
X106496730Y-78201130D03*
X87071200Y-72593200D03*
X82448400Y-72593200D03*
X91643200Y-72644000D03*
X87426800Y-77419200D03*
X89916000Y-77368400D03*
X95208873Y-85645973D03*
X95208873Y-87582027D03*
X98856800Y-92252800D03*
X101230300Y-92252800D03*
X104546400Y-70307200D03*
X111404400Y-70307200D03*
X101600000Y-70256400D03*
X98247200Y-70205600D03*
X99060000Y-69291200D03*
X104546400Y-69291200D03*
X102514400Y-69291200D03*
X111404400Y-69291200D03*
X90424000Y-86044700D03*
X90474800Y-84545700D03*
X89475438Y-84528921D03*
X89458800Y-86794200D03*
X89865200Y-80619600D03*
X87477600Y-80619600D03*
M02*
