%TF.GenerationSoftware,KiCad,Pcbnew,6.0.10-86aedd382b~118~ubuntu22.04.1*%
%TF.CreationDate,2023-02-07T20:32:30+01:00*%
%TF.ProjectId,mainBoard,6d61696e-426f-4617-9264-2e6b69636164,rev?*%
%TF.SameCoordinates,Original*%
%TF.FileFunction,Legend,Top*%
%TF.FilePolarity,Positive*%
%FSLAX46Y46*%
G04 Gerber Fmt 4.6, Leading zero omitted, Abs format (unit mm)*
G04 Created by KiCad (PCBNEW 6.0.10-86aedd382b~118~ubuntu22.04.1) date 2023-02-07 20:32:30*
%MOMM*%
%LPD*%
G01*
G04 APERTURE LIST*
G04 Aperture macros list*
%AMRoundRect*
0 Rectangle with rounded corners*
0 $1 Rounding radius*
0 $2 $3 $4 $5 $6 $7 $8 $9 X,Y pos of 4 corners*
0 Add a 4 corners polygon primitive as box body*
4,1,4,$2,$3,$4,$5,$6,$7,$8,$9,$2,$3,0*
0 Add four circle primitives for the rounded corners*
1,1,$1+$1,$2,$3*
1,1,$1+$1,$4,$5*
1,1,$1+$1,$6,$7*
1,1,$1+$1,$8,$9*
0 Add four rect primitives between the rounded corners*
20,1,$1+$1,$2,$3,$4,$5,0*
20,1,$1+$1,$4,$5,$6,$7,0*
20,1,$1+$1,$6,$7,$8,$9,0*
20,1,$1+$1,$8,$9,$2,$3,0*%
G04 Aperture macros list end*
%ADD10C,0.150000*%
%ADD11C,0.120000*%
%ADD12RoundRect,0.150000X0.700000X-0.150000X0.700000X0.150000X-0.700000X0.150000X-0.700000X-0.150000X0*%
%ADD13RoundRect,0.250000X1.150000X-0.250000X1.150000X0.250000X-1.150000X0.250000X-1.150000X-0.250000X0*%
%ADD14RoundRect,0.155000X0.155000X-0.212500X0.155000X0.212500X-0.155000X0.212500X-0.155000X-0.212500X0*%
%ADD15RoundRect,0.150000X-0.512500X-0.150000X0.512500X-0.150000X0.512500X0.150000X-0.512500X0.150000X0*%
%ADD16RoundRect,0.250000X-0.750000X-0.750000X0.750000X-0.750000X0.750000X0.750000X-0.750000X0.750000X0*%
%ADD17RoundRect,0.250000X-0.250000X-0.475000X0.250000X-0.475000X0.250000X0.475000X-0.250000X0.475000X0*%
%ADD18C,2.200000*%
%ADD19R,0.500000X0.500000*%
%ADD20RoundRect,0.250000X-0.475000X0.250000X-0.475000X-0.250000X0.475000X-0.250000X0.475000X0.250000X0*%
%ADD21RoundRect,0.135000X-0.135000X-0.185000X0.135000X-0.185000X0.135000X0.185000X-0.135000X0.185000X0*%
%ADD22RoundRect,0.140000X-0.140000X-0.170000X0.140000X-0.170000X0.140000X0.170000X-0.140000X0.170000X0*%
%ADD23RoundRect,0.218750X0.256250X-0.218750X0.256250X0.218750X-0.256250X0.218750X-0.256250X-0.218750X0*%
%ADD24RoundRect,0.135000X-0.185000X0.135000X-0.185000X-0.135000X0.185000X-0.135000X0.185000X0.135000X0*%
%ADD25RoundRect,0.135000X0.185000X-0.135000X0.185000X0.135000X-0.185000X0.135000X-0.185000X-0.135000X0*%
%ADD26RoundRect,0.250000X0.250000X0.475000X-0.250000X0.475000X-0.250000X-0.475000X0.250000X-0.475000X0*%
%ADD27RoundRect,0.150000X-0.700000X0.150000X-0.700000X-0.150000X0.700000X-0.150000X0.700000X0.150000X0*%
%ADD28RoundRect,0.250000X-1.150000X0.250000X-1.150000X-0.250000X1.150000X-0.250000X1.150000X0.250000X0*%
%ADD29RoundRect,0.150000X-0.150000X-0.700000X0.150000X-0.700000X0.150000X0.700000X-0.150000X0.700000X0*%
%ADD30RoundRect,0.250000X-0.250000X-1.100000X0.250000X-1.100000X0.250000X1.100000X-0.250000X1.100000X0*%
%ADD31R,1.500000X0.900000*%
%ADD32R,0.900000X1.500000*%
%ADD33R,0.900000X0.900000*%
%ADD34R,1.500000X1.500000*%
%ADD35RoundRect,0.150000X0.512500X0.150000X-0.512500X0.150000X-0.512500X-0.150000X0.512500X-0.150000X0*%
%ADD36R,1.500000X2.000000*%
%ADD37R,3.800000X2.000000*%
%ADD38C,0.800000*%
G04 APERTURE END LIST*
D10*
X95488342Y-93178285D02*
X95459771Y-93206857D01*
X95374057Y-93235428D01*
X95316914Y-93235428D01*
X95231200Y-93206857D01*
X95174057Y-93149714D01*
X95145485Y-93092571D01*
X95116914Y-92978285D01*
X95116914Y-92892571D01*
X95145485Y-92778285D01*
X95174057Y-92721142D01*
X95231200Y-92664000D01*
X95316914Y-92635428D01*
X95374057Y-92635428D01*
X95459771Y-92664000D01*
X95488342Y-92692571D01*
X95831200Y-93235428D02*
X95774057Y-93206857D01*
X95745485Y-93178285D01*
X95716914Y-93121142D01*
X95716914Y-92949714D01*
X95745485Y-92892571D01*
X95774057Y-92864000D01*
X95831200Y-92835428D01*
X95916914Y-92835428D01*
X95974057Y-92864000D01*
X96002628Y-92892571D01*
X96031200Y-92949714D01*
X96031200Y-93121142D01*
X96002628Y-93178285D01*
X95974057Y-93206857D01*
X95916914Y-93235428D01*
X95831200Y-93235428D01*
X96288342Y-92835428D02*
X96288342Y-93235428D01*
X96288342Y-92892571D02*
X96316914Y-92864000D01*
X96374057Y-92835428D01*
X96459771Y-92835428D01*
X96516914Y-92864000D01*
X96545485Y-92921142D01*
X96545485Y-93235428D01*
X96745485Y-92835428D02*
X96974057Y-92835428D01*
X96831200Y-92635428D02*
X96831200Y-93149714D01*
X96859771Y-93206857D01*
X96916914Y-93235428D01*
X96974057Y-93235428D01*
X97174057Y-93235428D02*
X97174057Y-92835428D01*
X97174057Y-92949714D02*
X97202628Y-92892571D01*
X97231200Y-92864000D01*
X97288342Y-92835428D01*
X97345485Y-92835428D01*
X97631200Y-93235428D02*
X97574057Y-93206857D01*
X97545485Y-93178285D01*
X97516914Y-93121142D01*
X97516914Y-92949714D01*
X97545485Y-92892571D01*
X97574057Y-92864000D01*
X97631200Y-92835428D01*
X97716914Y-92835428D01*
X97774057Y-92864000D01*
X97802628Y-92892571D01*
X97831200Y-92949714D01*
X97831200Y-93121142D01*
X97802628Y-93178285D01*
X97774057Y-93206857D01*
X97716914Y-93235428D01*
X97631200Y-93235428D01*
X98174057Y-93235428D02*
X98116914Y-93206857D01*
X98088342Y-93149714D01*
X98088342Y-92635428D01*
X98488342Y-93235428D02*
X98431200Y-93206857D01*
X98402628Y-93149714D01*
X98402628Y-92635428D01*
X98945485Y-93206857D02*
X98888342Y-93235428D01*
X98774057Y-93235428D01*
X98716914Y-93206857D01*
X98688342Y-93149714D01*
X98688342Y-92921142D01*
X98716914Y-92864000D01*
X98774057Y-92835428D01*
X98888342Y-92835428D01*
X98945485Y-92864000D01*
X98974057Y-92921142D01*
X98974057Y-92978285D01*
X98688342Y-93035428D01*
X99231200Y-93235428D02*
X99231200Y-92835428D01*
X99231200Y-92949714D02*
X99259771Y-92892571D01*
X99288342Y-92864000D01*
X99345485Y-92835428D01*
X99402628Y-92835428D01*
X86301257Y-93587942D02*
X86301257Y-93787942D01*
X85986971Y-93873657D02*
X85986971Y-93587942D01*
X86586971Y-93587942D01*
X86586971Y-93873657D01*
X85986971Y-94130800D02*
X86586971Y-94130800D01*
X85986971Y-94473657D01*
X86586971Y-94473657D01*
X82556457Y-77884342D02*
X82356457Y-77884342D01*
X82356457Y-78198628D02*
X82356457Y-77598628D01*
X82642171Y-77598628D01*
X82956457Y-78198628D02*
X82899314Y-78170057D01*
X82870742Y-78112914D01*
X82870742Y-77598628D01*
X83442171Y-78198628D02*
X83442171Y-77884342D01*
X83413600Y-77827200D01*
X83356457Y-77798628D01*
X83242171Y-77798628D01*
X83185028Y-77827200D01*
X83442171Y-78170057D02*
X83385028Y-78198628D01*
X83242171Y-78198628D01*
X83185028Y-78170057D01*
X83156457Y-78112914D01*
X83156457Y-78055771D01*
X83185028Y-77998628D01*
X83242171Y-77970057D01*
X83385028Y-77970057D01*
X83442171Y-77941485D01*
X83699314Y-78170057D02*
X83756457Y-78198628D01*
X83870742Y-78198628D01*
X83927885Y-78170057D01*
X83956457Y-78112914D01*
X83956457Y-78084342D01*
X83927885Y-78027200D01*
X83870742Y-77998628D01*
X83785028Y-77998628D01*
X83727885Y-77970057D01*
X83699314Y-77912914D01*
X83699314Y-77884342D01*
X83727885Y-77827200D01*
X83785028Y-77798628D01*
X83870742Y-77798628D01*
X83927885Y-77827200D01*
X84213600Y-78198628D02*
X84213600Y-77598628D01*
X84470742Y-78198628D02*
X84470742Y-77884342D01*
X84442171Y-77827200D01*
X84385028Y-77798628D01*
X84299314Y-77798628D01*
X84242171Y-77827200D01*
X84213600Y-77855771D01*
X113317371Y-92164000D02*
X113917371Y-92164000D01*
X113917371Y-92392571D01*
X113888800Y-92449714D01*
X113860228Y-92478285D01*
X113803085Y-92506857D01*
X113717371Y-92506857D01*
X113660228Y-92478285D01*
X113631657Y-92449714D01*
X113603085Y-92392571D01*
X113603085Y-92164000D01*
X113917371Y-92706857D02*
X113317371Y-92849714D01*
X113745942Y-92964000D01*
X113317371Y-93078285D01*
X113917371Y-93221142D01*
X113317371Y-93792571D02*
X113603085Y-93592571D01*
X113317371Y-93449714D02*
X113917371Y-93449714D01*
X113917371Y-93678285D01*
X113888800Y-93735428D01*
X113860228Y-93764000D01*
X113803085Y-93792571D01*
X113717371Y-93792571D01*
X113660228Y-93764000D01*
X113631657Y-93735428D01*
X113603085Y-93678285D01*
X113603085Y-93449714D01*
X111140914Y-78300228D02*
X111140914Y-77700228D01*
X111540914Y-77700228D02*
X111655200Y-77700228D01*
X111712342Y-77728800D01*
X111769485Y-77785942D01*
X111798057Y-77900228D01*
X111798057Y-78100228D01*
X111769485Y-78214514D01*
X111712342Y-78271657D01*
X111655200Y-78300228D01*
X111540914Y-78300228D01*
X111483771Y-78271657D01*
X111426628Y-78214514D01*
X111398057Y-78100228D01*
X111398057Y-77900228D01*
X111426628Y-77785942D01*
X111483771Y-77728800D01*
X111540914Y-77700228D01*
X84855142Y-71626400D02*
X85140857Y-71626400D01*
X84798000Y-71797828D02*
X84998000Y-71197828D01*
X85198000Y-71797828D01*
X85398000Y-71797828D02*
X85398000Y-71197828D01*
X85540857Y-71197828D01*
X85626571Y-71226400D01*
X85683714Y-71283542D01*
X85712285Y-71340685D01*
X85740857Y-71454971D01*
X85740857Y-71540685D01*
X85712285Y-71654971D01*
X85683714Y-71712114D01*
X85626571Y-71769257D01*
X85540857Y-71797828D01*
X85398000Y-71797828D01*
X86340857Y-71740685D02*
X86312285Y-71769257D01*
X86226571Y-71797828D01*
X86169428Y-71797828D01*
X86083714Y-71769257D01*
X86026571Y-71712114D01*
X85998000Y-71654971D01*
X85969428Y-71540685D01*
X85969428Y-71454971D01*
X85998000Y-71340685D01*
X86026571Y-71283542D01*
X86083714Y-71226400D01*
X86169428Y-71197828D01*
X86226571Y-71197828D01*
X86312285Y-71226400D01*
X86340857Y-71254971D01*
X91617828Y-79290857D02*
X92074971Y-79290857D01*
X91846400Y-79519428D02*
X91846400Y-79062285D01*
X109601028Y-92041657D02*
X110058171Y-92041657D01*
X109829600Y-92270228D02*
X109829600Y-91813085D01*
X108754857Y-93114914D02*
X108726285Y-93200628D01*
X108697714Y-93229200D01*
X108640571Y-93257771D01*
X108554857Y-93257771D01*
X108497714Y-93229200D01*
X108469142Y-93200628D01*
X108440571Y-93143485D01*
X108440571Y-92914914D01*
X109040571Y-92914914D01*
X109040571Y-93114914D01*
X109012000Y-93172057D01*
X108983428Y-93200628D01*
X108926285Y-93229200D01*
X108869142Y-93229200D01*
X108812000Y-93200628D01*
X108783428Y-93172057D01*
X108754857Y-93114914D01*
X108754857Y-92914914D01*
X109040571Y-93629200D02*
X109040571Y-93743485D01*
X109012000Y-93800628D01*
X108954857Y-93857771D01*
X108840571Y-93886342D01*
X108640571Y-93886342D01*
X108526285Y-93857771D01*
X108469142Y-93800628D01*
X108440571Y-93743485D01*
X108440571Y-93629200D01*
X108469142Y-93572057D01*
X108526285Y-93514914D01*
X108640571Y-93486342D01*
X108840571Y-93486342D01*
X108954857Y-93514914D01*
X109012000Y-93572057D01*
X109040571Y-93629200D01*
X109040571Y-94257771D02*
X109040571Y-94372057D01*
X109012000Y-94429200D01*
X108954857Y-94486342D01*
X108840571Y-94514914D01*
X108640571Y-94514914D01*
X108526285Y-94486342D01*
X108469142Y-94429200D01*
X108440571Y-94372057D01*
X108440571Y-94257771D01*
X108469142Y-94200628D01*
X108526285Y-94143485D01*
X108640571Y-94114914D01*
X108840571Y-94114914D01*
X108954857Y-94143485D01*
X109012000Y-94200628D01*
X109040571Y-94257771D01*
X109040571Y-94686342D02*
X109040571Y-95029200D01*
X108440571Y-94857771D02*
X109040571Y-94857771D01*
X93018552Y-59243980D02*
X93018552Y-59958266D01*
X92970933Y-60101123D01*
X92875695Y-60196361D01*
X92732838Y-60243980D01*
X92637600Y-60243980D01*
X93970933Y-60243980D02*
X93494742Y-60243980D01*
X93494742Y-59243980D01*
X94875695Y-60148742D02*
X94828076Y-60196361D01*
X94685219Y-60243980D01*
X94589980Y-60243980D01*
X94447123Y-60196361D01*
X94351885Y-60101123D01*
X94304266Y-60005885D01*
X94256647Y-59815409D01*
X94256647Y-59672552D01*
X94304266Y-59482076D01*
X94351885Y-59386838D01*
X94447123Y-59291600D01*
X94589980Y-59243980D01*
X94685219Y-59243980D01*
X94828076Y-59291600D01*
X94875695Y-59339219D01*
X95589980Y-59243980D02*
X95589980Y-59958266D01*
X95542361Y-60101123D01*
X95447123Y-60196361D01*
X95304266Y-60243980D01*
X95209028Y-60243980D01*
X96542361Y-60243980D02*
X96066171Y-60243980D01*
X96066171Y-59243980D01*
X97447123Y-60148742D02*
X97399504Y-60196361D01*
X97256647Y-60243980D01*
X97161409Y-60243980D01*
X97018552Y-60196361D01*
X96923314Y-60101123D01*
X96875695Y-60005885D01*
X96828076Y-59815409D01*
X96828076Y-59672552D01*
X96875695Y-59482076D01*
X96923314Y-59386838D01*
X97018552Y-59291600D01*
X97161409Y-59243980D01*
X97256647Y-59243980D01*
X97399504Y-59291600D01*
X97447123Y-59339219D01*
X98161409Y-59243980D02*
X98161409Y-59958266D01*
X98113790Y-60101123D01*
X98018552Y-60196361D01*
X97875695Y-60243980D01*
X97780457Y-60243980D01*
X99113790Y-60243980D02*
X98637600Y-60243980D01*
X98637600Y-59243980D01*
X100018552Y-60148742D02*
X99970933Y-60196361D01*
X99828076Y-60243980D01*
X99732838Y-60243980D01*
X99589980Y-60196361D01*
X99494742Y-60101123D01*
X99447123Y-60005885D01*
X99399504Y-59815409D01*
X99399504Y-59672552D01*
X99447123Y-59482076D01*
X99494742Y-59386838D01*
X99589980Y-59291600D01*
X99732838Y-59243980D01*
X99828076Y-59243980D01*
X99970933Y-59291600D01*
X100018552Y-59339219D01*
X100732838Y-59243980D02*
X100732838Y-59958266D01*
X100685219Y-60101123D01*
X100589980Y-60196361D01*
X100447123Y-60243980D01*
X100351885Y-60243980D01*
X101685219Y-60243980D02*
X101209028Y-60243980D01*
X101209028Y-59243980D01*
X102589980Y-60148742D02*
X102542361Y-60196361D01*
X102399504Y-60243980D01*
X102304266Y-60243980D01*
X102161409Y-60196361D01*
X102066171Y-60101123D01*
X102018552Y-60005885D01*
X101970933Y-59815409D01*
X101970933Y-59672552D01*
X102018552Y-59482076D01*
X102066171Y-59386838D01*
X102161409Y-59291600D01*
X102304266Y-59243980D01*
X102399504Y-59243980D01*
X102542361Y-59291600D01*
X102589980Y-59339219D01*
%TO.C,U2*%
X92774095Y-53158666D02*
X93250285Y-53158666D01*
X92678857Y-53444380D02*
X93012190Y-52444380D01*
X93345523Y-53444380D01*
X93678857Y-52777714D02*
X93678857Y-53444380D01*
X93678857Y-52872952D02*
X93726476Y-52825333D01*
X93821714Y-52777714D01*
X93964571Y-52777714D01*
X94059809Y-52825333D01*
X94107428Y-52920571D01*
X94107428Y-53444380D01*
X94440761Y-52777714D02*
X94821714Y-52777714D01*
X94583619Y-52444380D02*
X94583619Y-53301523D01*
X94631238Y-53396761D01*
X94726476Y-53444380D01*
X94821714Y-53444380D01*
X95536000Y-53396761D02*
X95440761Y-53444380D01*
X95250285Y-53444380D01*
X95155047Y-53396761D01*
X95107428Y-53301523D01*
X95107428Y-52920571D01*
X95155047Y-52825333D01*
X95250285Y-52777714D01*
X95440761Y-52777714D01*
X95536000Y-52825333D01*
X95583619Y-52920571D01*
X95583619Y-53015809D01*
X95107428Y-53111047D01*
X96012190Y-52777714D02*
X96012190Y-53444380D01*
X96012190Y-52872952D02*
X96059809Y-52825333D01*
X96155047Y-52777714D01*
X96297904Y-52777714D01*
X96393142Y-52825333D01*
X96440761Y-52920571D01*
X96440761Y-53444380D01*
X96916952Y-52777714D02*
X96916952Y-53444380D01*
X96916952Y-52872952D02*
X96964571Y-52825333D01*
X97059809Y-52777714D01*
X97202666Y-52777714D01*
X97297904Y-52825333D01*
X97345523Y-52920571D01*
X97345523Y-53444380D01*
X98250285Y-53444380D02*
X98250285Y-52920571D01*
X98202666Y-52825333D01*
X98107428Y-52777714D01*
X97916952Y-52777714D01*
X97821714Y-52825333D01*
X98250285Y-53396761D02*
X98155047Y-53444380D01*
X97916952Y-53444380D01*
X97821714Y-53396761D01*
X97774095Y-53301523D01*
X97774095Y-53206285D01*
X97821714Y-53111047D01*
X97916952Y-53063428D01*
X98155047Y-53063428D01*
X98250285Y-53015809D01*
X99440761Y-53158666D02*
X99916952Y-53158666D01*
X99345523Y-53444380D02*
X99678857Y-52444380D01*
X100012190Y-53444380D01*
X100345523Y-53444380D02*
X100345523Y-52777714D01*
X100345523Y-52968190D02*
X100393142Y-52872952D01*
X100440761Y-52825333D01*
X100536000Y-52777714D01*
X100631238Y-52777714D01*
X101345523Y-53396761D02*
X101250285Y-53444380D01*
X101059809Y-53444380D01*
X100964571Y-53396761D01*
X100916952Y-53301523D01*
X100916952Y-52920571D01*
X100964571Y-52825333D01*
X101059809Y-52777714D01*
X101250285Y-52777714D01*
X101345523Y-52825333D01*
X101393142Y-52920571D01*
X101393142Y-53015809D01*
X100916952Y-53111047D01*
X102250285Y-53444380D02*
X102250285Y-52920571D01*
X102202666Y-52825333D01*
X102107428Y-52777714D01*
X101916952Y-52777714D01*
X101821714Y-52825333D01*
X102250285Y-53396761D02*
X102155047Y-53444380D01*
X101916952Y-53444380D01*
X101821714Y-53396761D01*
X101774095Y-53301523D01*
X101774095Y-53206285D01*
X101821714Y-53111047D01*
X101916952Y-53063428D01*
X102155047Y-53063428D01*
X102250285Y-53015809D01*
D11*
%TO.C,J2*%
X113620000Y-78970000D02*
X113620000Y-80770000D01*
X113620000Y-88140000D02*
X114560000Y-88140000D01*
X112020000Y-78970000D02*
X113620000Y-78970000D01*
X112020000Y-89940000D02*
X113620000Y-89940000D01*
X109150000Y-88670000D02*
X109150000Y-80240000D01*
X113620000Y-89940000D02*
X113620000Y-88140000D01*
%TO.C,C6*%
X107132800Y-93638635D02*
X107132800Y-93406965D01*
X107852800Y-93638635D02*
X107852800Y-93406965D01*
%TO.C,Q1*%
X93065600Y-82107600D02*
X93865600Y-82107600D01*
X93065600Y-85227600D02*
X93865600Y-85227600D01*
X93065600Y-85227600D02*
X92265600Y-85227600D01*
X93065600Y-82107600D02*
X91265600Y-82107600D01*
%TO.C,C4*%
X82019548Y-64235000D02*
X82542052Y-64235000D01*
X82019548Y-62765000D02*
X82542052Y-62765000D01*
%TO.C,D2*%
X94464000Y-79769600D02*
X91914000Y-79769600D01*
X94464000Y-81469600D02*
X94464000Y-79769600D01*
X94464000Y-81469600D02*
X91914000Y-81469600D01*
%TO.C,C2*%
X98829800Y-79901148D02*
X98829800Y-80423652D01*
X97359800Y-79901148D02*
X97359800Y-80423652D01*
%TO.C,R2*%
X81719518Y-66294000D02*
X82026800Y-66294000D01*
X81719518Y-67054000D02*
X82026800Y-67054000D01*
%TO.C,C3*%
X84560564Y-66340400D02*
X84776236Y-66340400D01*
X84560564Y-67060400D02*
X84776236Y-67060400D01*
%TO.C,D1*%
X110212200Y-94347400D02*
X111682200Y-94347400D01*
X110212200Y-92062400D02*
X110212200Y-94347400D01*
X111682200Y-94347400D02*
X111682200Y-92062400D01*
%TO.C,R5*%
X107112800Y-90981559D02*
X107112800Y-91288841D01*
X107872800Y-90981559D02*
X107872800Y-91288841D01*
%TO.C,R1*%
X112091200Y-91387959D02*
X112091200Y-91695241D01*
X112851200Y-91387959D02*
X112851200Y-91695241D01*
%TO.C,R3*%
X88062800Y-87224841D02*
X88062800Y-86917559D01*
X88822800Y-87224841D02*
X88822800Y-86917559D01*
%TO.C,C1*%
X103436052Y-87555400D02*
X102913548Y-87555400D01*
X103436052Y-89025400D02*
X102913548Y-89025400D01*
%TO.C,R4*%
X88164400Y-84938841D02*
X88164400Y-84631559D01*
X88924400Y-84938841D02*
X88924400Y-84631559D01*
%TO.C,C5*%
X81715764Y-64918000D02*
X81931436Y-64918000D01*
X81715764Y-65638000D02*
X81931436Y-65638000D01*
%TO.C,J3*%
X81452000Y-80770000D02*
X80512000Y-80770000D01*
X81452000Y-89940000D02*
X81452000Y-88140000D01*
X83052000Y-78970000D02*
X81452000Y-78970000D01*
X83052000Y-89940000D02*
X81452000Y-89940000D01*
X81452000Y-78970000D02*
X81452000Y-80770000D01*
X85922000Y-80240000D02*
X85922000Y-88670000D01*
%TO.C,C7*%
X87786800Y-93587835D02*
X87786800Y-93356165D01*
X87066800Y-93587835D02*
X87066800Y-93356165D01*
%TO.C,J4*%
X101146000Y-97276000D02*
X101146000Y-95826000D01*
X95726000Y-95826000D02*
X95726000Y-94836000D01*
X95196000Y-100096000D02*
X99876000Y-100096000D01*
X93926000Y-97276000D02*
X93926000Y-95826000D01*
X101146000Y-95826000D02*
X99346000Y-95826000D01*
X93926000Y-95826000D02*
X95726000Y-95826000D01*
%TO.C,U2*%
X105786000Y-75492000D02*
X104036000Y-75492000D01*
X88536000Y-75492000D02*
X89286000Y-75492000D01*
X106536000Y-74742000D02*
X106536000Y-75492000D01*
X88536000Y-49992000D02*
X106536000Y-49992000D01*
X88536000Y-49992000D02*
X88536000Y-56742000D01*
X106536000Y-49992000D02*
X106536000Y-56742000D01*
X106536000Y-75492000D02*
X105786000Y-75492000D01*
X106536000Y-55932000D02*
X88536000Y-55932000D01*
X88536000Y-74742000D02*
X88536000Y-75492000D01*
X89286000Y-75492000D02*
X91036000Y-75492000D01*
%TO.C,SW1*%
X102950400Y-91428000D02*
X106650400Y-91428000D01*
X106650400Y-97548000D02*
X102950400Y-97548000D01*
X106650400Y-91428000D02*
X106650400Y-97548000D01*
X102950400Y-97548000D02*
X102950400Y-91428000D01*
%TO.C,Q2*%
X93014800Y-89139200D02*
X92214800Y-89139200D01*
X93014800Y-89139200D02*
X94814800Y-89139200D01*
X93014800Y-86019200D02*
X93814800Y-86019200D01*
X93014800Y-86019200D02*
X92214800Y-86019200D01*
%TO.C,SW2*%
X88320000Y-91428000D02*
X92020000Y-91428000D01*
X92020000Y-91428000D02*
X92020000Y-97548000D01*
X88320000Y-97548000D02*
X88320000Y-91428000D01*
X92020000Y-97548000D02*
X88320000Y-97548000D01*
%TO.C,U1*%
X100018800Y-86802400D02*
X100018800Y-80792400D01*
X106838800Y-84552400D02*
X106838800Y-80792400D01*
X100018800Y-80792400D02*
X101278800Y-80792400D01*
X106838800Y-80792400D02*
X105578800Y-80792400D01*
%TO.C,R6*%
X87806800Y-90981559D02*
X87806800Y-91288841D01*
X87046800Y-90981559D02*
X87046800Y-91288841D01*
%TD*%
%LPC*%
D12*
%TO.C,J2*%
X113710000Y-87580000D03*
X113710000Y-86330000D03*
X113710000Y-85080000D03*
X113710000Y-83830000D03*
X113710000Y-82580000D03*
X113710000Y-81330000D03*
D13*
X110360000Y-79480000D03*
X110360000Y-89430000D03*
%TD*%
D14*
%TO.C,C6*%
X107492800Y-94090300D03*
X107492800Y-92955300D03*
%TD*%
D15*
%TO.C,Q1*%
X91928100Y-82717600D03*
X91928100Y-84617600D03*
X94203100Y-83667600D03*
%TD*%
D16*
%TO.C,J1*%
X85648800Y-69392800D03*
%TD*%
D17*
%TO.C,C4*%
X81330800Y-63500000D03*
X83230800Y-63500000D03*
%TD*%
D18*
%TO.C,H2*%
X83312000Y-97536000D03*
%TD*%
D19*
%TO.C,D2*%
X94064000Y-80619600D03*
X91864000Y-80619600D03*
%TD*%
D20*
%TO.C,C2*%
X98094800Y-79212400D03*
X98094800Y-81112400D03*
%TD*%
D21*
%TO.C,R2*%
X81363159Y-66674000D03*
X82383159Y-66674000D03*
%TD*%
D22*
%TO.C,C3*%
X84188400Y-66700400D03*
X85148400Y-66700400D03*
%TD*%
D23*
%TO.C,D1*%
X110947200Y-93649900D03*
X110947200Y-92074900D03*
%TD*%
D24*
%TO.C,R5*%
X107492800Y-90625200D03*
X107492800Y-91645200D03*
%TD*%
D18*
%TO.C,H1*%
X83312000Y-52070000D03*
%TD*%
D24*
%TO.C,R1*%
X112471200Y-91031600D03*
X112471200Y-92051600D03*
%TD*%
D25*
%TO.C,R3*%
X88442800Y-87581200D03*
X88442800Y-86561200D03*
%TD*%
D26*
%TO.C,C1*%
X104124800Y-88290400D03*
X102224800Y-88290400D03*
%TD*%
D18*
%TO.C,H4*%
X111760000Y-97536000D03*
%TD*%
D25*
%TO.C,R4*%
X88544400Y-85295200D03*
X88544400Y-84275200D03*
%TD*%
D22*
%TO.C,C5*%
X81343600Y-65278000D03*
X82303600Y-65278000D03*
%TD*%
D27*
%TO.C,J3*%
X81362000Y-81330000D03*
X81362000Y-82580000D03*
X81362000Y-83830000D03*
X81362000Y-85080000D03*
X81362000Y-86330000D03*
X81362000Y-87580000D03*
D28*
X84712000Y-89430000D03*
X84712000Y-79480000D03*
%TD*%
D14*
%TO.C,C7*%
X87426800Y-94039500D03*
X87426800Y-92904500D03*
%TD*%
D29*
%TO.C,J4*%
X96286000Y-95686000D03*
X97536000Y-95686000D03*
X98786000Y-95686000D03*
D30*
X100636000Y-98886000D03*
X94436000Y-98886000D03*
%TD*%
D31*
%TO.C,U2*%
X88786000Y-57482000D03*
X88786000Y-58752000D03*
X88786000Y-60022000D03*
X88786000Y-61292000D03*
X88786000Y-62562000D03*
X88786000Y-63832000D03*
X88786000Y-65102000D03*
X88786000Y-66372000D03*
X88786000Y-67642000D03*
X88786000Y-68912000D03*
X88786000Y-70182000D03*
X88786000Y-71452000D03*
X88786000Y-72722000D03*
X88786000Y-73992000D03*
D32*
X91816000Y-75242000D03*
X93086000Y-75242000D03*
X94356000Y-75242000D03*
X95626000Y-75242000D03*
X96896000Y-75242000D03*
X98166000Y-75242000D03*
X99436000Y-75242000D03*
X100706000Y-75242000D03*
X101976000Y-75242000D03*
X103246000Y-75242000D03*
D31*
X106286000Y-73992000D03*
X106286000Y-72722000D03*
X106286000Y-71452000D03*
X106286000Y-70182000D03*
X106286000Y-68912000D03*
X106286000Y-67642000D03*
X106286000Y-66372000D03*
X106286000Y-65102000D03*
X106286000Y-63832000D03*
X106286000Y-62562000D03*
X106286000Y-61292000D03*
X106286000Y-60022000D03*
X106286000Y-58752000D03*
X106286000Y-57482000D03*
D33*
X96036000Y-66602000D03*
X96036000Y-63802000D03*
X97436000Y-63802000D03*
X97436000Y-65202000D03*
X97436000Y-66602000D03*
X94636000Y-65202000D03*
X94636000Y-66602000D03*
X94636000Y-63802000D03*
X96036000Y-65202000D03*
%TD*%
D34*
%TO.C,SW1*%
X104800400Y-98388000D03*
X104800400Y-90588000D03*
%TD*%
D35*
%TO.C,Q2*%
X94152300Y-88529200D03*
X94152300Y-86629200D03*
X91877300Y-87579200D03*
%TD*%
D34*
%TO.C,SW2*%
X90170000Y-98388000D03*
X90170000Y-90588000D03*
%TD*%
D36*
%TO.C,U1*%
X101128800Y-85852400D03*
X103428800Y-85852400D03*
D37*
X103428800Y-79552400D03*
D36*
X105728800Y-85852400D03*
%TD*%
D24*
%TO.C,R6*%
X87426800Y-90625200D03*
X87426800Y-91645200D03*
%TD*%
D18*
%TO.C,H3*%
X111760000Y-52070000D03*
%TD*%
D38*
X94386400Y-82397600D03*
X97261500Y-82788850D03*
X101142800Y-88493600D03*
X93319600Y-66598800D03*
X90220800Y-99872800D03*
X87477600Y-95148400D03*
X101193600Y-87579200D03*
X112034800Y-86330000D03*
X93319600Y-63804800D03*
X98755200Y-82143600D03*
X97942400Y-93929200D03*
X84124800Y-82245200D03*
X97028000Y-93929200D03*
X97434400Y-62687200D03*
X90424000Y-57454800D03*
X104749600Y-100025200D03*
X98755200Y-63804800D03*
X101346000Y-84277200D03*
X85125600Y-65481200D03*
X91846400Y-73812400D03*
X96012000Y-67818000D03*
X98755200Y-66598800D03*
X85242400Y-81889600D03*
X100431600Y-84328000D03*
X94640400Y-62687200D03*
X96062800Y-62687200D03*
X107492800Y-95351600D03*
X94640400Y-67818000D03*
X97434400Y-67868800D03*
X112623600Y-93700700D03*
X93370400Y-65176400D03*
X104698800Y-57454800D03*
X98755200Y-65176400D03*
X83347600Y-65227200D03*
X105308400Y-76454000D03*
X84429600Y-72593200D03*
X106496730Y-78201130D03*
X87071200Y-72593200D03*
X82448400Y-72593200D03*
X91643200Y-72644000D03*
X87426800Y-77419200D03*
X89916000Y-77368400D03*
X95208873Y-85645973D03*
X95208873Y-87582027D03*
X98856800Y-92252800D03*
X101230300Y-92252800D03*
X104546400Y-70307200D03*
X111404400Y-70307200D03*
X101600000Y-70256400D03*
X98247200Y-70205600D03*
X99060000Y-69291200D03*
X104546400Y-69291200D03*
X102514400Y-69291200D03*
X111404400Y-69291200D03*
X90424000Y-86044700D03*
X90474800Y-84545700D03*
X89475438Y-84528921D03*
X89458800Y-86794200D03*
X89865200Y-80619600D03*
X87477600Y-80619600D03*
M02*
