%TF.GenerationSoftware,KiCad,Pcbnew,6.0.10-86aedd382b~118~ubuntu22.04.1*%
%TF.CreationDate,2023-02-09T07:40:42+01:00*%
%TF.ProjectId,mainBoard,6d61696e-426f-4617-9264-2e6b69636164,rev?*%
%TF.SameCoordinates,Original*%
%TF.FileFunction,Soldermask,Bot*%
%TF.FilePolarity,Negative*%
%FSLAX46Y46*%
G04 Gerber Fmt 4.6, Leading zero omitted, Abs format (unit mm)*
G04 Created by KiCad (PCBNEW 6.0.10-86aedd382b~118~ubuntu22.04.1) date 2023-02-09 07:40:42*
%MOMM*%
%LPD*%
G01*
G04 APERTURE LIST*
G04 Aperture macros list*
%AMRoundRect*
0 Rectangle with rounded corners*
0 $1 Rounding radius*
0 $2 $3 $4 $5 $6 $7 $8 $9 X,Y pos of 4 corners*
0 Add a 4 corners polygon primitive as box body*
4,1,4,$2,$3,$4,$5,$6,$7,$8,$9,$2,$3,0*
0 Add four circle primitives for the rounded corners*
1,1,$1+$1,$2,$3*
1,1,$1+$1,$4,$5*
1,1,$1+$1,$6,$7*
1,1,$1+$1,$8,$9*
0 Add four rect primitives between the rounded corners*
20,1,$1+$1,$2,$3,$4,$5,0*
20,1,$1+$1,$4,$5,$6,$7,0*
20,1,$1+$1,$6,$7,$8,$9,0*
20,1,$1+$1,$8,$9,$2,$3,0*%
G04 Aperture macros list end*
%ADD10RoundRect,0.250000X-0.750000X-0.750000X0.750000X-0.750000X0.750000X0.750000X-0.750000X0.750000X0*%
%ADD11C,2.200000*%
%ADD12C,0.800000*%
G04 APERTURE END LIST*
D10*
%TO.C,J1*%
X85648800Y-69392800D03*
%TD*%
D11*
%TO.C,H2*%
X83312000Y-97536000D03*
%TD*%
%TO.C,H1*%
X83312000Y-52070000D03*
%TD*%
%TO.C,H4*%
X111760000Y-97536000D03*
%TD*%
%TO.C,H3*%
X111760000Y-52070000D03*
%TD*%
D12*
X94386400Y-82397600D03*
X97261500Y-82788850D03*
X101142800Y-88493600D03*
X93319600Y-66598800D03*
X90220800Y-99872800D03*
X87477600Y-95148400D03*
X101193600Y-87579200D03*
X112034800Y-86330000D03*
X93319600Y-63804800D03*
X98755200Y-82143600D03*
X97942400Y-93929200D03*
X84124800Y-82245200D03*
X97028000Y-93929200D03*
X97434400Y-62687200D03*
X90424000Y-57454800D03*
X104749600Y-100025200D03*
X98755200Y-63804800D03*
X101346000Y-84277200D03*
X85125600Y-65481200D03*
X91846400Y-73812400D03*
X96012000Y-67818000D03*
X98755200Y-66598800D03*
X85242400Y-81889600D03*
X100431600Y-84328000D03*
X94640400Y-62687200D03*
X96062800Y-62687200D03*
X107492800Y-95351600D03*
X94640400Y-67818000D03*
X97434400Y-67868800D03*
X112623600Y-93700700D03*
X93370400Y-65176400D03*
X104698800Y-57454800D03*
X98755200Y-65176400D03*
X83347600Y-65227200D03*
X105308400Y-76454000D03*
X84429600Y-72593200D03*
X106496730Y-78201130D03*
X87071200Y-72593200D03*
X82448400Y-72593200D03*
X91643200Y-72644000D03*
X87426800Y-77419200D03*
X89916000Y-77368400D03*
X95208873Y-85645973D03*
X95208873Y-87582027D03*
X98856800Y-92252800D03*
X101230300Y-92252800D03*
X104546400Y-70307200D03*
X111404400Y-70307200D03*
X101600000Y-70256400D03*
X98247200Y-70205600D03*
X99060000Y-69291200D03*
X104546400Y-69291200D03*
X102514400Y-69291200D03*
X111404400Y-69291200D03*
X90424000Y-86044700D03*
X90474800Y-84545700D03*
X89475438Y-84528921D03*
X89458800Y-86794200D03*
X89865200Y-80619600D03*
X87477600Y-80619600D03*
M02*
