%TF.GenerationSoftware,KiCad,Pcbnew,6.0.10-86aedd382b~118~ubuntu22.04.1*%
%TF.CreationDate,2023-02-07T20:32:30+01:00*%
%TF.ProjectId,mainBoard,6d61696e-426f-4617-9264-2e6b69636164,rev?*%
%TF.SameCoordinates,Original*%
%TF.FileFunction,Copper,L1,Top*%
%TF.FilePolarity,Positive*%
%FSLAX46Y46*%
G04 Gerber Fmt 4.6, Leading zero omitted, Abs format (unit mm)*
G04 Created by KiCad (PCBNEW 6.0.10-86aedd382b~118~ubuntu22.04.1) date 2023-02-07 20:32:30*
%MOMM*%
%LPD*%
G01*
G04 APERTURE LIST*
G04 Aperture macros list*
%AMRoundRect*
0 Rectangle with rounded corners*
0 $1 Rounding radius*
0 $2 $3 $4 $5 $6 $7 $8 $9 X,Y pos of 4 corners*
0 Add a 4 corners polygon primitive as box body*
4,1,4,$2,$3,$4,$5,$6,$7,$8,$9,$2,$3,0*
0 Add four circle primitives for the rounded corners*
1,1,$1+$1,$2,$3*
1,1,$1+$1,$4,$5*
1,1,$1+$1,$6,$7*
1,1,$1+$1,$8,$9*
0 Add four rect primitives between the rounded corners*
20,1,$1+$1,$2,$3,$4,$5,0*
20,1,$1+$1,$4,$5,$6,$7,0*
20,1,$1+$1,$6,$7,$8,$9,0*
20,1,$1+$1,$8,$9,$2,$3,0*%
G04 Aperture macros list end*
%TA.AperFunction,SMDPad,CuDef*%
%ADD10RoundRect,0.150000X0.700000X-0.150000X0.700000X0.150000X-0.700000X0.150000X-0.700000X-0.150000X0*%
%TD*%
%TA.AperFunction,SMDPad,CuDef*%
%ADD11RoundRect,0.250000X1.150000X-0.250000X1.150000X0.250000X-1.150000X0.250000X-1.150000X-0.250000X0*%
%TD*%
%TA.AperFunction,SMDPad,CuDef*%
%ADD12RoundRect,0.155000X0.155000X-0.212500X0.155000X0.212500X-0.155000X0.212500X-0.155000X-0.212500X0*%
%TD*%
%TA.AperFunction,SMDPad,CuDef*%
%ADD13RoundRect,0.150000X-0.512500X-0.150000X0.512500X-0.150000X0.512500X0.150000X-0.512500X0.150000X0*%
%TD*%
%TA.AperFunction,ComponentPad*%
%ADD14RoundRect,0.250000X-0.750000X-0.750000X0.750000X-0.750000X0.750000X0.750000X-0.750000X0.750000X0*%
%TD*%
%TA.AperFunction,SMDPad,CuDef*%
%ADD15RoundRect,0.250000X-0.250000X-0.475000X0.250000X-0.475000X0.250000X0.475000X-0.250000X0.475000X0*%
%TD*%
%TA.AperFunction,SMDPad,CuDef*%
%ADD16R,0.500000X0.500000*%
%TD*%
%TA.AperFunction,SMDPad,CuDef*%
%ADD17RoundRect,0.250000X-0.475000X0.250000X-0.475000X-0.250000X0.475000X-0.250000X0.475000X0.250000X0*%
%TD*%
%TA.AperFunction,SMDPad,CuDef*%
%ADD18RoundRect,0.135000X-0.135000X-0.185000X0.135000X-0.185000X0.135000X0.185000X-0.135000X0.185000X0*%
%TD*%
%TA.AperFunction,SMDPad,CuDef*%
%ADD19RoundRect,0.140000X-0.140000X-0.170000X0.140000X-0.170000X0.140000X0.170000X-0.140000X0.170000X0*%
%TD*%
%TA.AperFunction,SMDPad,CuDef*%
%ADD20RoundRect,0.218750X0.256250X-0.218750X0.256250X0.218750X-0.256250X0.218750X-0.256250X-0.218750X0*%
%TD*%
%TA.AperFunction,SMDPad,CuDef*%
%ADD21RoundRect,0.135000X-0.185000X0.135000X-0.185000X-0.135000X0.185000X-0.135000X0.185000X0.135000X0*%
%TD*%
%TA.AperFunction,SMDPad,CuDef*%
%ADD22RoundRect,0.135000X0.185000X-0.135000X0.185000X0.135000X-0.185000X0.135000X-0.185000X-0.135000X0*%
%TD*%
%TA.AperFunction,SMDPad,CuDef*%
%ADD23RoundRect,0.250000X0.250000X0.475000X-0.250000X0.475000X-0.250000X-0.475000X0.250000X-0.475000X0*%
%TD*%
%TA.AperFunction,SMDPad,CuDef*%
%ADD24RoundRect,0.150000X-0.700000X0.150000X-0.700000X-0.150000X0.700000X-0.150000X0.700000X0.150000X0*%
%TD*%
%TA.AperFunction,SMDPad,CuDef*%
%ADD25RoundRect,0.250000X-1.150000X0.250000X-1.150000X-0.250000X1.150000X-0.250000X1.150000X0.250000X0*%
%TD*%
%TA.AperFunction,SMDPad,CuDef*%
%ADD26RoundRect,0.150000X-0.150000X-0.700000X0.150000X-0.700000X0.150000X0.700000X-0.150000X0.700000X0*%
%TD*%
%TA.AperFunction,SMDPad,CuDef*%
%ADD27RoundRect,0.250000X-0.250000X-1.100000X0.250000X-1.100000X0.250000X1.100000X-0.250000X1.100000X0*%
%TD*%
%TA.AperFunction,SMDPad,CuDef*%
%ADD28R,1.500000X0.900000*%
%TD*%
%TA.AperFunction,SMDPad,CuDef*%
%ADD29R,0.900000X1.500000*%
%TD*%
%TA.AperFunction,SMDPad,CuDef*%
%ADD30R,0.900000X0.900000*%
%TD*%
%TA.AperFunction,SMDPad,CuDef*%
%ADD31R,1.500000X1.500000*%
%TD*%
%TA.AperFunction,SMDPad,CuDef*%
%ADD32RoundRect,0.150000X0.512500X0.150000X-0.512500X0.150000X-0.512500X-0.150000X0.512500X-0.150000X0*%
%TD*%
%TA.AperFunction,SMDPad,CuDef*%
%ADD33R,1.500000X2.000000*%
%TD*%
%TA.AperFunction,SMDPad,CuDef*%
%ADD34R,3.800000X2.000000*%
%TD*%
%TA.AperFunction,ViaPad*%
%ADD35C,0.800000*%
%TD*%
%TA.AperFunction,Conductor*%
%ADD36C,0.500000*%
%TD*%
%TA.AperFunction,Conductor*%
%ADD37C,0.300000*%
%TD*%
G04 APERTURE END LIST*
D10*
%TO.P,J2,1,Pin_1*%
%TO.N,+3.3V*%
X113710000Y-87580000D03*
%TO.P,J2,2,Pin_2*%
%TO.N,GND*%
X113710000Y-86330000D03*
%TO.P,J2,3,Pin_3*%
%TO.N,/SDA*%
X113710000Y-85080000D03*
%TO.P,J2,4,Pin_4*%
%TO.N,/SCK*%
X113710000Y-83830000D03*
%TO.P,J2,5,Pin_5*%
%TO.N,/Btn_L*%
X113710000Y-82580000D03*
%TO.P,J2,6,Pin_6*%
%TO.N,/Btn_R*%
X113710000Y-81330000D03*
D11*
%TO.P,J2,MP*%
%TO.N,N/C*%
X110360000Y-79480000D03*
X110360000Y-89430000D03*
%TD*%
D12*
%TO.P,C6,1*%
%TO.N,GND*%
X107492800Y-94090300D03*
%TO.P,C6,2*%
%TO.N,/Boot*%
X107492800Y-92955300D03*
%TD*%
D13*
%TO.P,Q1,1,B*%
%TO.N,Net-(Q1-Pad1)*%
X91928100Y-82717600D03*
%TO.P,Q1,2,E*%
%TO.N,/CTS*%
X91928100Y-84617600D03*
%TO.P,Q1,3,C*%
%TO.N,/EN*%
X94203100Y-83667600D03*
%TD*%
D14*
%TO.P,J1,1,Pin_1*%
%TO.N,/ADC_OUT*%
X85648800Y-69392800D03*
%TD*%
D15*
%TO.P,C4,1*%
%TO.N,+3.3V*%
X81330800Y-63500000D03*
%TO.P,C4,2*%
%TO.N,GND*%
X83230800Y-63500000D03*
%TD*%
D16*
%TO.P,D2,1,K*%
%TO.N,VCC*%
X94064000Y-80619600D03*
%TO.P,D2,2,A*%
%TO.N,Net-(D2-Pad2)*%
X91864000Y-80619600D03*
%TD*%
D17*
%TO.P,C2,1*%
%TO.N,+3.3V*%
X98094800Y-79212400D03*
%TO.P,C2,2*%
%TO.N,GND*%
X98094800Y-81112400D03*
%TD*%
D18*
%TO.P,R2,1*%
%TO.N,+3.3V*%
X81363159Y-66674000D03*
%TO.P,R2,2*%
%TO.N,/EN*%
X82383159Y-66674000D03*
%TD*%
D19*
%TO.P,C3,1*%
%TO.N,/EN*%
X84188400Y-66700400D03*
%TO.P,C3,2*%
%TO.N,GND*%
X85148400Y-66700400D03*
%TD*%
D20*
%TO.P,D1,1,K*%
%TO.N,GND*%
X110947200Y-93649900D03*
%TO.P,D1,2,A*%
%TO.N,Net-(D1-Pad2)*%
X110947200Y-92074900D03*
%TD*%
D21*
%TO.P,R5,1*%
%TO.N,Net-(R5-Pad1)*%
X107492800Y-90625200D03*
%TO.P,R5,2*%
%TO.N,/Boot*%
X107492800Y-91645200D03*
%TD*%
%TO.P,R1,1*%
%TO.N,+3.3V*%
X112471200Y-91031600D03*
%TO.P,R1,2*%
%TO.N,Net-(D1-Pad2)*%
X112471200Y-92051600D03*
%TD*%
D22*
%TO.P,R3,1*%
%TO.N,/DTR*%
X88442800Y-87581200D03*
%TO.P,R3,2*%
%TO.N,Net-(Q1-Pad1)*%
X88442800Y-86561200D03*
%TD*%
D23*
%TO.P,C1,1*%
%TO.N,VCC*%
X104124800Y-88290400D03*
%TO.P,C1,2*%
%TO.N,GND*%
X102224800Y-88290400D03*
%TD*%
D22*
%TO.P,R4,1*%
%TO.N,/CTS*%
X88544400Y-85295200D03*
%TO.P,R4,2*%
%TO.N,Net-(Q2-Pad1)*%
X88544400Y-84275200D03*
%TD*%
D19*
%TO.P,C5,1*%
%TO.N,+3.3V*%
X81343600Y-65278000D03*
%TO.P,C5,2*%
%TO.N,GND*%
X82303600Y-65278000D03*
%TD*%
D24*
%TO.P,J3,1,Pin_1*%
%TO.N,Net-(D2-Pad2)*%
X81362000Y-81330000D03*
%TO.P,J3,2,Pin_2*%
%TO.N,GND*%
X81362000Y-82580000D03*
%TO.P,J3,3,Pin_3*%
%TO.N,/PR_TX*%
X81362000Y-83830000D03*
%TO.P,J3,4,Pin_4*%
%TO.N,/PR_RX*%
X81362000Y-85080000D03*
%TO.P,J3,5,Pin_5*%
%TO.N,/CTS*%
X81362000Y-86330000D03*
%TO.P,J3,6,Pin_6*%
%TO.N,/DTR*%
X81362000Y-87580000D03*
D25*
%TO.P,J3,MP*%
%TO.N,N/C*%
X84712000Y-89430000D03*
X84712000Y-79480000D03*
%TD*%
D12*
%TO.P,C7,1*%
%TO.N,GND*%
X87426800Y-94039500D03*
%TO.P,C7,2*%
%TO.N,/EN*%
X87426800Y-92904500D03*
%TD*%
D26*
%TO.P,J4,1,Pin_1*%
%TO.N,VCC*%
X96286000Y-95686000D03*
%TO.P,J4,2,Pin_2*%
%TO.N,GND*%
X97536000Y-95686000D03*
%TO.P,J4,3,Pin_3*%
%TO.N,/C-Data*%
X98786000Y-95686000D03*
D27*
%TO.P,J4,MP*%
%TO.N,N/C*%
X100636000Y-98886000D03*
X94436000Y-98886000D03*
%TD*%
D28*
%TO.P,U2,1,GND*%
%TO.N,GND*%
X88786000Y-57482000D03*
%TO.P,U2,2,3V3*%
%TO.N,+3.3V*%
X88786000Y-58752000D03*
%TO.P,U2,3,EN/CHIP_PU*%
%TO.N,/EN*%
X88786000Y-60022000D03*
%TO.P,U2,4,SENSOR_VP/GPIO36/ADC1_CH0*%
%TO.N,unconnected-(U2-Pad4)*%
X88786000Y-61292000D03*
%TO.P,U2,5,SENSOR_VN/GPIO39/ADC1_CH3*%
%TO.N,unconnected-(U2-Pad5)*%
X88786000Y-62562000D03*
%TO.P,U2,6,GPIO34/ADC1_CH6*%
%TO.N,unconnected-(U2-Pad6)*%
X88786000Y-63832000D03*
%TO.P,U2,7,GPIO35/ADC1_CH7*%
%TO.N,unconnected-(U2-Pad7)*%
X88786000Y-65102000D03*
%TO.P,U2,8,32K_XP/GPIO32/ADC1_CH4*%
%TO.N,/ADC_OUT*%
X88786000Y-66372000D03*
%TO.P,U2,9,32K_XN/GPIO33/ADC1_CH5*%
%TO.N,unconnected-(U2-Pad9)*%
X88786000Y-67642000D03*
%TO.P,U2,10,DAC_1/ADC2_CH8/GPIO25*%
%TO.N,/Btn_R*%
X88786000Y-68912000D03*
%TO.P,U2,11,DAC_2/ADC2_CH9/GPIO26*%
%TO.N,/Btn_L*%
X88786000Y-70182000D03*
%TO.P,U2,12,ADC2_CH7/GPIO27*%
%TO.N,unconnected-(U2-Pad12)*%
X88786000Y-71452000D03*
%TO.P,U2,13,MTMS/GPIO14/ADC2_CH6*%
%TO.N,unconnected-(U2-Pad13)*%
X88786000Y-72722000D03*
%TO.P,U2,14,MTDI/GPIO12/ADC2_CH5*%
%TO.N,unconnected-(U2-Pad14)*%
X88786000Y-73992000D03*
D29*
%TO.P,U2,15,GND*%
%TO.N,GND*%
X91816000Y-75242000D03*
%TO.P,U2,16,MTCK/GPIO13/ADC2_CH4*%
%TO.N,unconnected-(U2-Pad16)*%
X93086000Y-75242000D03*
%TO.P,U2,17,NC*%
%TO.N,unconnected-(U2-Pad17)*%
X94356000Y-75242000D03*
%TO.P,U2,18,NC*%
%TO.N,unconnected-(U2-Pad18)*%
X95626000Y-75242000D03*
%TO.P,U2,19,NC*%
%TO.N,unconnected-(U2-Pad19)*%
X96896000Y-75242000D03*
%TO.P,U2,20,NC*%
%TO.N,unconnected-(U2-Pad20)*%
X98166000Y-75242000D03*
%TO.P,U2,21,NC*%
%TO.N,unconnected-(U2-Pad21)*%
X99436000Y-75242000D03*
%TO.P,U2,22,NC*%
%TO.N,unconnected-(U2-Pad22)*%
X100706000Y-75242000D03*
%TO.P,U2,23,MTDO/GPIO15/ADC2_CH3*%
%TO.N,unconnected-(U2-Pad23)*%
X101976000Y-75242000D03*
%TO.P,U2,24,ADC2_CH2/GPIO2*%
%TO.N,unconnected-(U2-Pad24)*%
X103246000Y-75242000D03*
D28*
%TO.P,U2,25,GPIO0/BOOT/ADC2_CH1*%
%TO.N,/Boot*%
X106286000Y-73992000D03*
%TO.P,U2,26,ADC2_CH0/GPIO4*%
%TO.N,unconnected-(U2-Pad26)*%
X106286000Y-72722000D03*
%TO.P,U2,27,GPIO16*%
%TO.N,/C-Data*%
X106286000Y-71452000D03*
%TO.P,U2,28,GPIO17*%
%TO.N,unconnected-(U2-Pad28)*%
X106286000Y-70182000D03*
%TO.P,U2,29,GPIO5*%
%TO.N,unconnected-(U2-Pad29)*%
X106286000Y-68912000D03*
%TO.P,U2,30,GPIO18*%
%TO.N,unconnected-(U2-Pad30)*%
X106286000Y-67642000D03*
%TO.P,U2,31,GPIO19*%
%TO.N,unconnected-(U2-Pad31)*%
X106286000Y-66372000D03*
%TO.P,U2,32,NC*%
%TO.N,unconnected-(U2-Pad32)*%
X106286000Y-65102000D03*
%TO.P,U2,33,GPIO21*%
%TO.N,/SDA*%
X106286000Y-63832000D03*
%TO.P,U2,34,U0RXD/GPIO3*%
%TO.N,/PR_RX*%
X106286000Y-62562000D03*
%TO.P,U2,35,U0TXD/GPIO1*%
%TO.N,/PR_TX*%
X106286000Y-61292000D03*
%TO.P,U2,36,GPIO22*%
%TO.N,/SCK*%
X106286000Y-60022000D03*
%TO.P,U2,37,GPIO23*%
%TO.N,unconnected-(U2-Pad37)*%
X106286000Y-58752000D03*
%TO.P,U2,38,GND*%
%TO.N,GND*%
X106286000Y-57482000D03*
D30*
%TO.P,U2,39,GND_THERMAL*%
X96036000Y-66602000D03*
X96036000Y-63802000D03*
X97436000Y-63802000D03*
X97436000Y-65202000D03*
X97436000Y-66602000D03*
X94636000Y-65202000D03*
X94636000Y-66602000D03*
X94636000Y-63802000D03*
X96036000Y-65202000D03*
%TD*%
D31*
%TO.P,SW1,1,1*%
%TO.N,GND*%
X104800400Y-98388000D03*
%TO.P,SW1,2,2*%
%TO.N,Net-(R5-Pad1)*%
X104800400Y-90588000D03*
%TD*%
D32*
%TO.P,Q2,1,B*%
%TO.N,Net-(Q2-Pad1)*%
X94152300Y-88529200D03*
%TO.P,Q2,2,E*%
%TO.N,/Boot*%
X94152300Y-86629200D03*
%TO.P,Q2,3,C*%
%TO.N,/DTR*%
X91877300Y-87579200D03*
%TD*%
D31*
%TO.P,SW2,1,1*%
%TO.N,GND*%
X90170000Y-98388000D03*
%TO.P,SW2,2,2*%
%TO.N,Net-(R6-Pad1)*%
X90170000Y-90588000D03*
%TD*%
D33*
%TO.P,U1,1,GND*%
%TO.N,GND*%
X101128800Y-85852400D03*
%TO.P,U1,2,VO*%
%TO.N,+3.3V*%
X103428800Y-85852400D03*
D34*
X103428800Y-79552400D03*
D33*
%TO.P,U1,3,VI*%
%TO.N,VCC*%
X105728800Y-85852400D03*
%TD*%
D21*
%TO.P,R6,1*%
%TO.N,Net-(R6-Pad1)*%
X87426800Y-90625200D03*
%TO.P,R6,2*%
%TO.N,/EN*%
X87426800Y-91645200D03*
%TD*%
D35*
%TO.N,VCC*%
X94386400Y-82397600D03*
X97261500Y-82788850D03*
%TO.N,GND*%
X101142800Y-88493600D03*
X93319600Y-66598800D03*
X90220800Y-99872800D03*
X87477600Y-95148400D03*
X101193600Y-87579200D03*
X112034800Y-86330000D03*
X93319600Y-63804800D03*
X98755200Y-82143600D03*
X97942400Y-93929200D03*
X84124800Y-82245200D03*
X97028000Y-93929200D03*
X97434400Y-62687200D03*
X90424000Y-57454800D03*
X104749600Y-100025200D03*
X98755200Y-63804800D03*
X101346000Y-84277200D03*
X85125600Y-65481200D03*
X91846400Y-73812400D03*
X96012000Y-67818000D03*
X98755200Y-66598800D03*
X85242400Y-81889600D03*
X100431600Y-84328000D03*
X94640400Y-62687200D03*
X96062800Y-62687200D03*
X107492800Y-95351600D03*
X94640400Y-67818000D03*
X97434400Y-67868800D03*
X112623600Y-93700700D03*
X93370400Y-65176400D03*
X104698800Y-57454800D03*
X98755200Y-65176400D03*
X83347600Y-65227200D03*
%TO.N,+3.3V*%
X105308400Y-76454000D03*
X84429600Y-72593200D03*
X106496730Y-78201130D03*
X87071200Y-72593200D03*
X82448400Y-72593200D03*
X91643200Y-72644000D03*
%TO.N,/EN*%
X87426800Y-77419200D03*
X89916000Y-77368400D03*
X95208873Y-85645973D03*
X95208873Y-87582027D03*
%TO.N,/Boot*%
X98856800Y-92252800D03*
X101230300Y-92252800D03*
%TO.N,/Btn_L*%
X104546400Y-70307200D03*
X111404400Y-70307200D03*
X101600000Y-70256400D03*
X98247200Y-70205600D03*
%TO.N,/Btn_R*%
X99060000Y-69291200D03*
X104546400Y-69291200D03*
X102514400Y-69291200D03*
X111404400Y-69291200D03*
%TO.N,Net-(Q1-Pad1)*%
X90424000Y-86044700D03*
X90474800Y-84545700D03*
%TO.N,Net-(Q2-Pad1)*%
X89475438Y-84528921D03*
X89458800Y-86794200D03*
%TO.N,Net-(D2-Pad2)*%
X89865200Y-80619600D03*
X87477600Y-80619600D03*
%TD*%
D36*
%TO.N,VCC*%
X99263200Y-97383600D02*
X100380800Y-96266000D01*
X104124800Y-88661200D02*
X104124800Y-88290400D01*
X96286000Y-95686000D02*
X96286000Y-97098800D01*
X97383600Y-82910950D02*
X97383600Y-89255600D01*
X94064000Y-82075200D02*
X94386400Y-82397600D01*
X98247200Y-90119200D02*
X101498400Y-90119200D01*
X94064000Y-80619600D02*
X94064000Y-82075200D01*
X101498400Y-90119200D02*
X102666800Y-90119200D01*
X96570800Y-97383600D02*
X99263200Y-97383600D01*
X96286000Y-97098800D02*
X96570800Y-97383600D01*
X102666800Y-90119200D02*
X104124800Y-88661200D01*
X97261500Y-82788850D02*
X97383600Y-82910950D01*
X97383600Y-89255600D02*
X98247200Y-90119200D01*
X100380800Y-96266000D02*
X100380800Y-90119200D01*
X100380800Y-90119200D02*
X101498400Y-90119200D01*
D37*
%TO.N,GND*%
X104800400Y-98337200D02*
X104800400Y-99974400D01*
D36*
X104698800Y-57454800D02*
X106258800Y-57454800D01*
X110947200Y-93649900D02*
X112572800Y-93649900D01*
D37*
X90170000Y-98388000D02*
X90170000Y-99822000D01*
D36*
X91816000Y-75242000D02*
X91816000Y-73842800D01*
X83296800Y-65278000D02*
X83347600Y-65227200D01*
X83230800Y-65110400D02*
X83347600Y-65227200D01*
D37*
X90170000Y-99822000D02*
X90220800Y-99872800D01*
D36*
X90396800Y-57482000D02*
X90424000Y-57454800D01*
X88786000Y-57482000D02*
X90396800Y-57482000D01*
X83230800Y-63500000D02*
X83230800Y-65110400D01*
X112572800Y-93649900D02*
X112623600Y-93700700D01*
X106258800Y-57454800D02*
X106286000Y-57482000D01*
X82303600Y-65278000D02*
X83296800Y-65278000D01*
D37*
X107492800Y-94090300D02*
X107492800Y-95351600D01*
X87426800Y-95097600D02*
X87477600Y-95148400D01*
X87426800Y-94039500D02*
X87426800Y-95097600D01*
D36*
X85148400Y-66700400D02*
X85148400Y-65504000D01*
X85148400Y-65504000D02*
X85125600Y-65481200D01*
D37*
X104800400Y-99974400D02*
X104749600Y-100025200D01*
D36*
X91816000Y-73842800D02*
X91846400Y-73812400D01*
X112034800Y-86330000D02*
X113710000Y-86330000D01*
%TO.N,+3.3V*%
X103428800Y-79654400D02*
X103428800Y-79552400D01*
X111354400Y-87580000D02*
X103428800Y-79654400D01*
X82448400Y-72593200D02*
X81363159Y-71507959D01*
X112471200Y-88818800D02*
X113710000Y-87580000D01*
X87071200Y-72593200D02*
X84429600Y-72593200D01*
X106496730Y-78201130D02*
X105145460Y-79552400D01*
X113710000Y-87580000D02*
X111354400Y-87580000D01*
X105145460Y-79552400D02*
X103428800Y-79552400D01*
X81343600Y-65278000D02*
X81343600Y-63512800D01*
X91643200Y-72644000D02*
X103530400Y-72644000D01*
X112471200Y-91031600D02*
X112471200Y-88818800D01*
X82346800Y-62026800D02*
X81330800Y-63042800D01*
X81343600Y-63512800D02*
X81330800Y-63500000D01*
X104597200Y-73710800D02*
X104597200Y-75742800D01*
X84582000Y-62026800D02*
X82346800Y-62026800D01*
X103530400Y-72644000D02*
X104597200Y-73710800D01*
X81363159Y-66674000D02*
X81363159Y-65297559D01*
X87856800Y-58752000D02*
X88786000Y-58752000D01*
X87856800Y-58752000D02*
X84582000Y-62026800D01*
X81363159Y-71507959D02*
X81363159Y-66674000D01*
X81330800Y-63042800D02*
X81330800Y-63500000D01*
X81363159Y-65297559D02*
X81343600Y-65278000D01*
X104597200Y-75742800D02*
X105308400Y-76454000D01*
D37*
%TO.N,/EN*%
X95208873Y-85645973D02*
X95208873Y-84083673D01*
X89103200Y-92608400D02*
X92659200Y-92608400D01*
X94792800Y-83667600D02*
X94203100Y-83667600D01*
X95300800Y-83108800D02*
X95300800Y-78282800D01*
X92659200Y-92608400D02*
X95504000Y-89763600D01*
X84188400Y-65357739D02*
X84188400Y-66700400D01*
X95208873Y-84083673D02*
X94792800Y-83667600D01*
X87450400Y-60022000D02*
X88786000Y-60022000D01*
X84188400Y-66700400D02*
X83398400Y-66700400D01*
X83398400Y-66700400D02*
X82409559Y-66700400D01*
X87426800Y-91645200D02*
X88140000Y-91645200D01*
X85880000Y-63666139D02*
X84188400Y-65357739D01*
X88140000Y-91645200D02*
X89103200Y-92608400D01*
X94742000Y-83667600D02*
X95199200Y-83210400D01*
X95300800Y-78282800D02*
X94386400Y-77368400D01*
X94203100Y-83667600D02*
X94742000Y-83667600D01*
X87426800Y-77419200D02*
X83398400Y-73390800D01*
X83398400Y-73390800D02*
X83398400Y-66700400D01*
X82409559Y-66700400D02*
X82383159Y-66674000D01*
X85880000Y-61592400D02*
X87450400Y-60022000D01*
X95504000Y-89763600D02*
X95504000Y-87877154D01*
X85880000Y-61592400D02*
X85880000Y-63666139D01*
X87426800Y-91645200D02*
X87426800Y-92904500D01*
X95504000Y-87877154D02*
X95208873Y-87582027D01*
X95199200Y-83210400D02*
X95300800Y-83108800D01*
X94386400Y-77368400D02*
X89916000Y-77368400D01*
%TO.N,/Boot*%
X96012000Y-85902800D02*
X96012000Y-78028800D01*
X98856800Y-92252800D02*
X96977200Y-92252800D01*
X107492800Y-92955300D02*
X107492800Y-92252800D01*
X95316000Y-86598800D02*
X96012000Y-85902800D01*
X105664000Y-77266800D02*
X106286000Y-76644800D01*
X107492800Y-92252800D02*
X101230300Y-92252800D01*
X107492800Y-92252800D02*
X107492800Y-91645200D01*
X96012000Y-78028800D02*
X96774000Y-77266800D01*
X106286000Y-76644800D02*
X106286000Y-73992000D01*
X96977200Y-92252800D02*
X96012000Y-91287600D01*
X95316000Y-86629200D02*
X94152300Y-86629200D01*
X96012000Y-91287600D02*
X96012000Y-87325200D01*
X95316000Y-86629200D02*
X95316000Y-86598800D01*
X96012000Y-87325200D02*
X95316000Y-86629200D01*
X96774000Y-77266800D02*
X105664000Y-77266800D01*
D36*
%TO.N,Net-(D1-Pad2)*%
X110947200Y-92074900D02*
X112447900Y-92074900D01*
X112447900Y-92074900D02*
X112471200Y-92051600D01*
D37*
%TO.N,/ADC_OUT*%
X85648800Y-68173600D02*
X87450400Y-66372000D01*
X87450400Y-66372000D02*
X88786000Y-66372000D01*
X85648800Y-69392800D02*
X85648800Y-68173600D01*
%TO.N,/SDA*%
X107696000Y-78536800D02*
X109880400Y-76352400D01*
X113710000Y-85080000D02*
X110327600Y-85080000D01*
X107696000Y-82448400D02*
X107696000Y-78536800D01*
X110327600Y-85080000D02*
X107696000Y-82448400D01*
X109880400Y-65176400D02*
X108536000Y-63832000D01*
X109880400Y-76352400D02*
X109880400Y-65176400D01*
X108536000Y-63832000D02*
X106286000Y-63832000D01*
%TO.N,/SCK*%
X113710000Y-83830000D02*
X112461472Y-83830000D01*
X112451472Y-83820000D02*
X109880400Y-83820000D01*
X110490000Y-62636400D02*
X107875600Y-60022000D01*
X112461472Y-83830000D02*
X112451472Y-83820000D01*
X109880400Y-83820000D02*
X108254800Y-82194400D01*
X108254800Y-78740000D02*
X110490000Y-76504800D01*
X110490000Y-76504800D02*
X110490000Y-62636400D01*
X108254800Y-82194400D02*
X108254800Y-78740000D01*
X107875600Y-60022000D02*
X106286000Y-60022000D01*
%TO.N,/Btn_L*%
X88786000Y-70182000D02*
X98223600Y-70182000D01*
X113487200Y-79654400D02*
X113487200Y-70709506D01*
X113487200Y-70709506D02*
X113084894Y-70307200D01*
X113084894Y-70307200D02*
X111404400Y-70307200D01*
X98223600Y-70182000D02*
X98247200Y-70205600D01*
X101600000Y-70256400D02*
X104495600Y-70256400D01*
X113710000Y-82580000D02*
X112704400Y-82580000D01*
X112115600Y-81026000D02*
X113487200Y-79654400D01*
X112115600Y-81991200D02*
X112115600Y-81026000D01*
X104495600Y-70256400D02*
X104546400Y-70307200D01*
X112704400Y-82580000D02*
X112115600Y-81991200D01*
%TO.N,/Btn_R*%
X112776000Y-69291200D02*
X112166400Y-69291200D01*
X113710000Y-81330000D02*
X114096800Y-80943200D01*
X90044800Y-68912000D02*
X88786000Y-68912000D01*
X104546400Y-69291200D02*
X102514400Y-69291200D01*
X114096800Y-80943200D02*
X114096800Y-70612000D01*
X90424000Y-69291200D02*
X90044800Y-68912000D01*
X112166400Y-69291200D02*
X111404400Y-69291200D01*
X99060000Y-69291200D02*
X90424000Y-69291200D01*
X114096800Y-70612000D02*
X112776000Y-69291200D01*
%TO.N,/PR_TX*%
X102616000Y-63144400D02*
X104468400Y-61292000D01*
X89712800Y-75184000D02*
X90220800Y-74676000D01*
X90220800Y-72136000D02*
X91389200Y-70967600D01*
X81362000Y-83830000D02*
X85469107Y-83830000D01*
X90220800Y-74676000D02*
X90220800Y-72136000D01*
X88341200Y-75590400D02*
X88747600Y-75184000D01*
X88341200Y-80957907D02*
X88341200Y-75590400D01*
X102616000Y-67157600D02*
X102616000Y-63144400D01*
X98806000Y-70967600D02*
X102616000Y-67157600D01*
X104468400Y-61292000D02*
X106286000Y-61292000D01*
X88747600Y-75184000D02*
X89712800Y-75184000D01*
X85469107Y-83830000D02*
X88341200Y-80957907D01*
X91389200Y-70967600D02*
X98806000Y-70967600D01*
%TO.N,/PR_RX*%
X103225600Y-67255106D02*
X103225600Y-63500000D01*
X90728800Y-72390000D02*
X91643200Y-71475600D01*
X89966800Y-75692000D02*
X90728800Y-74930000D01*
X88900000Y-75996800D02*
X89204800Y-75692000D01*
X85469107Y-85080000D02*
X88900000Y-81649107D01*
X99013106Y-71467600D02*
X103225600Y-67255106D01*
X81362000Y-85080000D02*
X85469107Y-85080000D01*
X104163600Y-62562000D02*
X106286000Y-62562000D01*
X91643200Y-71467600D02*
X99013106Y-71467600D01*
X88900000Y-81649107D02*
X88900000Y-75996800D01*
X90728800Y-74930000D02*
X90728800Y-72390000D01*
X91643200Y-71475600D02*
X91643200Y-71467600D01*
X89204800Y-75692000D02*
X89966800Y-75692000D01*
X103225600Y-63500000D02*
X104163600Y-62562000D01*
%TO.N,/CTS*%
X88544400Y-85295200D02*
X87475600Y-85295200D01*
X91250500Y-85295200D02*
X91928100Y-84617600D01*
X86440800Y-86330000D02*
X81362000Y-86330000D01*
X88544400Y-85295200D02*
X91250500Y-85295200D01*
X87475600Y-85295200D02*
X86440800Y-86330000D01*
%TO.N,/DTR*%
X88442800Y-87581200D02*
X88441600Y-87580000D01*
X88442800Y-87581200D02*
X88444800Y-87579200D01*
X88441600Y-87580000D02*
X81362000Y-87580000D01*
X88444800Y-87579200D02*
X91877300Y-87579200D01*
%TO.N,/C-Data*%
X99606800Y-91942139D02*
X99167461Y-91502800D01*
X107367600Y-71452000D02*
X106286000Y-71452000D01*
X105871106Y-77766800D02*
X108000800Y-75637106D01*
X96512000Y-91076400D02*
X96512000Y-78235906D01*
X99606800Y-94865200D02*
X99606800Y-91942139D01*
X96981106Y-77766800D02*
X105871106Y-77766800D01*
X96938400Y-91502800D02*
X96512000Y-91076400D01*
X108000800Y-75637106D02*
X108000800Y-72085200D01*
X98786000Y-95686000D02*
X99606800Y-94865200D01*
X108000800Y-72085200D02*
X107367600Y-71452000D01*
X96512000Y-78235906D02*
X96981106Y-77766800D01*
X99167461Y-91502800D02*
X96938400Y-91502800D01*
%TO.N,Net-(Q1-Pad1)*%
X90474800Y-84545700D02*
X90474800Y-84170900D01*
X88442800Y-86461600D02*
X88442800Y-86561200D01*
X90424000Y-86044700D02*
X88859700Y-86044700D01*
X88859700Y-86044700D02*
X88442800Y-86461600D01*
X90474800Y-84170900D02*
X91928100Y-82717600D01*
%TO.N,Net-(Q2-Pad1)*%
X91076081Y-86453280D02*
X92295280Y-86453280D01*
X89221717Y-84275200D02*
X89475438Y-84528921D01*
X90734661Y-86794700D02*
X91076081Y-86453280D01*
X92295280Y-86453280D02*
X94152300Y-88310300D01*
X88544400Y-84275200D02*
X89221717Y-84275200D01*
X89458800Y-86794200D02*
X89459300Y-86794700D01*
X89459300Y-86794700D02*
X90734661Y-86794700D01*
X94152300Y-88310300D02*
X94152300Y-88529200D01*
%TO.N,Net-(R5-Pad1)*%
X107492800Y-90625200D02*
X104837600Y-90625200D01*
X104837600Y-90625200D02*
X104800400Y-90588000D01*
%TO.N,Net-(R6-Pad1)*%
X87426800Y-90625200D02*
X90132800Y-90625200D01*
X90132800Y-90625200D02*
X90170000Y-90588000D01*
D36*
%TO.N,Net-(D2-Pad2)*%
X81362000Y-81330000D02*
X82072400Y-80619600D01*
X89865200Y-80619600D02*
X91864000Y-80619600D01*
X82072400Y-80619600D02*
X87477600Y-80619600D01*
%TD*%
%TA.AperFunction,Conductor*%
%TO.N,GND*%
G36*
X85672572Y-81290188D02*
G01*
X85928034Y-81399672D01*
X85982768Y-81444891D01*
X86004400Y-81515484D01*
X86004400Y-82163316D01*
X85984398Y-82231437D01*
X85929573Y-82278456D01*
X84657235Y-82843940D01*
X84606062Y-82854800D01*
X81964800Y-82854800D01*
X81896679Y-82834798D01*
X81850186Y-82781142D01*
X81838800Y-82728800D01*
X81838800Y-82386816D01*
X81858802Y-82318695D01*
X81912458Y-82272202D01*
X81924955Y-82267282D01*
X84867402Y-81286466D01*
X84907247Y-81280000D01*
X85622938Y-81280000D01*
X85672572Y-81290188D01*
G37*
%TD.AperFunction*%
%TD*%
%TA.AperFunction,Conductor*%
%TO.N,GND*%
G36*
X98560419Y-62250002D02*
G01*
X98589810Y-62276204D01*
X99190418Y-63010152D01*
X99218079Y-63075538D01*
X99218899Y-63088593D01*
X99268495Y-67700920D01*
X99268646Y-67715004D01*
X99249377Y-67783336D01*
X99230799Y-67806393D01*
X98916029Y-68114548D01*
X98897787Y-68129342D01*
X98636057Y-68303829D01*
X98634543Y-68304838D01*
X98564651Y-68326000D01*
X93612734Y-68326000D01*
X93541351Y-68303829D01*
X92815417Y-67804749D01*
X92770615Y-67749674D01*
X92760800Y-67700920D01*
X92760800Y-62987810D01*
X92780802Y-62919689D01*
X92791134Y-62905810D01*
X93332686Y-62274000D01*
X93392205Y-62235296D01*
X93428352Y-62230000D01*
X98492298Y-62230000D01*
X98560419Y-62250002D01*
G37*
%TD.AperFunction*%
%TD*%
%TA.AperFunction,Conductor*%
%TO.N,GND*%
G36*
X98595721Y-93492002D02*
G01*
X98642214Y-93545658D01*
X98653600Y-93598000D01*
X98653600Y-93791937D01*
X98634909Y-93857973D01*
X97877701Y-95088436D01*
X97824964Y-95135969D01*
X97770392Y-95148400D01*
X97349433Y-95148400D01*
X97281312Y-95128398D01*
X97244595Y-95092292D01*
X96388762Y-93808543D01*
X96367600Y-93738651D01*
X96367600Y-93598000D01*
X96387602Y-93529879D01*
X96441258Y-93483386D01*
X96493600Y-93472000D01*
X98527600Y-93472000D01*
X98595721Y-93492002D01*
G37*
%TD.AperFunction*%
%TD*%
%TA.AperFunction,Conductor*%
%TO.N,+3.3V*%
G36*
X105250521Y-78607602D02*
G01*
X105297014Y-78661258D01*
X105308400Y-78713600D01*
X105308400Y-81277601D01*
X105288398Y-81345722D01*
X105270275Y-81367901D01*
X104152982Y-82455185D01*
X104152981Y-82455186D01*
X104140000Y-82467819D01*
X104140148Y-86692113D01*
X104140148Y-86700989D01*
X104120148Y-86769110D01*
X104066494Y-86815605D01*
X104013232Y-86826990D01*
X103739109Y-86824997D01*
X102791882Y-86818109D01*
X102723910Y-86797613D01*
X102677809Y-86743621D01*
X102666800Y-86692113D01*
X102666800Y-81483200D01*
X102651855Y-81475601D01*
X102651854Y-81475600D01*
X99682868Y-79965946D01*
X99682866Y-79965946D01*
X99669600Y-79959200D01*
X97306400Y-79959200D01*
X97238279Y-79939198D01*
X97191786Y-79885542D01*
X97180400Y-79833200D01*
X97180400Y-78713600D01*
X97200402Y-78645479D01*
X97254058Y-78598986D01*
X97306400Y-78587600D01*
X105182400Y-78587600D01*
X105250521Y-78607602D01*
G37*
%TD.AperFunction*%
%TD*%
%TA.AperFunction,Conductor*%
%TO.N,GND*%
G36*
X99397658Y-80643070D02*
G01*
X101801237Y-82359912D01*
X101845042Y-82415781D01*
X101854000Y-82462441D01*
X101854000Y-87579200D01*
X102591600Y-87579200D01*
X102659721Y-87599202D01*
X102706214Y-87652858D01*
X102717600Y-87705200D01*
X102717600Y-88875600D01*
X102697598Y-88943721D01*
X102643942Y-88990214D01*
X102591600Y-89001600D01*
X99469723Y-89001600D01*
X99401602Y-88981598D01*
X99355109Y-88927942D01*
X99345805Y-88898410D01*
X99341607Y-88875600D01*
X98198739Y-82666838D01*
X98057977Y-82462441D01*
X97405828Y-81515477D01*
X97383600Y-81444012D01*
X97383600Y-80745600D01*
X97403602Y-80677479D01*
X97457258Y-80630986D01*
X97509600Y-80619600D01*
X99324422Y-80619600D01*
X99397658Y-80643070D01*
G37*
%TD.AperFunction*%
%TD*%
%TA.AperFunction,Conductor*%
%TO.N,VCC*%
G36*
X106418921Y-84856002D02*
G01*
X106465414Y-84909658D01*
X106476800Y-84962000D01*
X106476800Y-88875600D01*
X106456798Y-88943721D01*
X106403142Y-88990214D01*
X106350800Y-89001600D01*
X103758000Y-89001600D01*
X103689879Y-88981598D01*
X103643386Y-88927942D01*
X103632000Y-88875600D01*
X103632000Y-87705200D01*
X103652002Y-87637079D01*
X103705658Y-87590586D01*
X103758000Y-87579200D01*
X105003600Y-87579200D01*
X105003600Y-84962000D01*
X105023602Y-84893879D01*
X105077258Y-84847386D01*
X105129600Y-84836000D01*
X106350800Y-84836000D01*
X106418921Y-84856002D01*
G37*
%TD.AperFunction*%
%TD*%
M02*
