%TF.GenerationSoftware,KiCad,Pcbnew,6.0.10-86aedd382b~118~ubuntu22.04.1*%
%TF.CreationDate,2023-02-07T20:32:30+01:00*%
%TF.ProjectId,mainBoard,6d61696e-426f-4617-9264-2e6b69636164,rev?*%
%TF.SameCoordinates,Original*%
%TF.FileFunction,Legend,Bot*%
%TF.FilePolarity,Positive*%
%FSLAX46Y46*%
G04 Gerber Fmt 4.6, Leading zero omitted, Abs format (unit mm)*
G04 Created by KiCad (PCBNEW 6.0.10-86aedd382b~118~ubuntu22.04.1) date 2023-02-07 20:32:30*
%MOMM*%
%LPD*%
G01*
G04 APERTURE LIST*
G04 Aperture macros list*
%AMRoundRect*
0 Rectangle with rounded corners*
0 $1 Rounding radius*
0 $2 $3 $4 $5 $6 $7 $8 $9 X,Y pos of 4 corners*
0 Add a 4 corners polygon primitive as box body*
4,1,4,$2,$3,$4,$5,$6,$7,$8,$9,$2,$3,0*
0 Add four circle primitives for the rounded corners*
1,1,$1+$1,$2,$3*
1,1,$1+$1,$4,$5*
1,1,$1+$1,$6,$7*
1,1,$1+$1,$8,$9*
0 Add four rect primitives between the rounded corners*
20,1,$1+$1,$2,$3,$4,$5,0*
20,1,$1+$1,$4,$5,$6,$7,0*
20,1,$1+$1,$6,$7,$8,$9,0*
20,1,$1+$1,$8,$9,$2,$3,0*%
G04 Aperture macros list end*
%ADD10C,0.150000*%
%ADD11RoundRect,0.250000X-0.750000X-0.750000X0.750000X-0.750000X0.750000X0.750000X-0.750000X0.750000X0*%
%ADD12C,2.200000*%
%ADD13C,0.800000*%
G04 APERTURE END LIST*
D10*
X100216838Y-77015780D02*
X100216838Y-76015780D01*
X99883504Y-76730066D01*
X99550171Y-76015780D01*
X99550171Y-77015780D01*
X98645409Y-77015780D02*
X98645409Y-76491971D01*
X98693028Y-76396733D01*
X98788266Y-76349114D01*
X98978742Y-76349114D01*
X99073980Y-76396733D01*
X98645409Y-76968161D02*
X98740647Y-77015780D01*
X98978742Y-77015780D01*
X99073980Y-76968161D01*
X99121600Y-76872923D01*
X99121600Y-76777685D01*
X99073980Y-76682447D01*
X98978742Y-76634828D01*
X98740647Y-76634828D01*
X98645409Y-76587209D01*
X98169219Y-77015780D02*
X98169219Y-76349114D01*
X98169219Y-76015780D02*
X98216838Y-76063400D01*
X98169219Y-76111019D01*
X98121600Y-76063400D01*
X98169219Y-76015780D01*
X98169219Y-76111019D01*
X97693028Y-76349114D02*
X97693028Y-77015780D01*
X97693028Y-76444352D02*
X97645409Y-76396733D01*
X97550171Y-76349114D01*
X97407314Y-76349114D01*
X97312076Y-76396733D01*
X97264457Y-76491971D01*
X97264457Y-77015780D01*
X96788266Y-77015780D02*
X96788266Y-76015780D01*
X96788266Y-76396733D02*
X96693028Y-76349114D01*
X96502552Y-76349114D01*
X96407314Y-76396733D01*
X96359695Y-76444352D01*
X96312076Y-76539590D01*
X96312076Y-76825304D01*
X96359695Y-76920542D01*
X96407314Y-76968161D01*
X96502552Y-77015780D01*
X96693028Y-77015780D01*
X96788266Y-76968161D01*
X95740647Y-77015780D02*
X95835885Y-76968161D01*
X95883504Y-76920542D01*
X95931123Y-76825304D01*
X95931123Y-76539590D01*
X95883504Y-76444352D01*
X95835885Y-76396733D01*
X95740647Y-76349114D01*
X95597790Y-76349114D01*
X95502552Y-76396733D01*
X95454933Y-76444352D01*
X95407314Y-76539590D01*
X95407314Y-76825304D01*
X95454933Y-76920542D01*
X95502552Y-76968161D01*
X95597790Y-77015780D01*
X95740647Y-77015780D01*
X94550171Y-77015780D02*
X94550171Y-76491971D01*
X94597790Y-76396733D01*
X94693028Y-76349114D01*
X94883504Y-76349114D01*
X94978742Y-76396733D01*
X94550171Y-76968161D02*
X94645409Y-77015780D01*
X94883504Y-77015780D01*
X94978742Y-76968161D01*
X95026361Y-76872923D01*
X95026361Y-76777685D01*
X94978742Y-76682447D01*
X94883504Y-76634828D01*
X94645409Y-76634828D01*
X94550171Y-76587209D01*
X94073980Y-77015780D02*
X94073980Y-76349114D01*
X94073980Y-76539590D02*
X94026361Y-76444352D01*
X93978742Y-76396733D01*
X93883504Y-76349114D01*
X93788266Y-76349114D01*
X93026361Y-77015780D02*
X93026361Y-76015780D01*
X93026361Y-76968161D02*
X93121600Y-77015780D01*
X93312076Y-77015780D01*
X93407314Y-76968161D01*
X93454933Y-76920542D01*
X93502552Y-76825304D01*
X93502552Y-76539590D01*
X93454933Y-76444352D01*
X93407314Y-76396733D01*
X93312076Y-76349114D01*
X93121600Y-76349114D01*
X93026361Y-76396733D01*
X98288266Y-77959114D02*
X98050171Y-78625780D01*
X97812076Y-77959114D01*
X97431123Y-78530542D02*
X97383504Y-78578161D01*
X97431123Y-78625780D01*
X97478742Y-78578161D01*
X97431123Y-78530542D01*
X97431123Y-78625780D01*
X96764457Y-77625780D02*
X96669219Y-77625780D01*
X96573980Y-77673400D01*
X96526361Y-77721019D01*
X96478742Y-77816257D01*
X96431123Y-78006733D01*
X96431123Y-78244828D01*
X96478742Y-78435304D01*
X96526361Y-78530542D01*
X96573980Y-78578161D01*
X96669219Y-78625780D01*
X96764457Y-78625780D01*
X96859695Y-78578161D01*
X96907314Y-78530542D01*
X96954933Y-78435304D01*
X97002552Y-78244828D01*
X97002552Y-78006733D01*
X96954933Y-77816257D01*
X96907314Y-77721019D01*
X96859695Y-77673400D01*
X96764457Y-77625780D01*
X96002552Y-78530542D02*
X95954933Y-78578161D01*
X96002552Y-78625780D01*
X96050171Y-78578161D01*
X96002552Y-78530542D01*
X96002552Y-78625780D01*
X95478742Y-78625780D02*
X95288266Y-78625780D01*
X95193028Y-78578161D01*
X95145409Y-78530542D01*
X95050171Y-78387685D01*
X95002552Y-78197209D01*
X95002552Y-77816257D01*
X95050171Y-77721019D01*
X95097790Y-77673400D01*
X95193028Y-77625780D01*
X95383504Y-77625780D01*
X95478742Y-77673400D01*
X95526361Y-77721019D01*
X95573980Y-77816257D01*
X95573980Y-78054352D01*
X95526361Y-78149590D01*
X95478742Y-78197209D01*
X95383504Y-78244828D01*
X95193028Y-78244828D01*
X95097790Y-78197209D01*
X95050171Y-78149590D01*
X95002552Y-78054352D01*
%LPC*%
D11*
%TO.C,J1*%
X85648800Y-69392800D03*
%TD*%
D12*
%TO.C,H2*%
X83312000Y-97536000D03*
%TD*%
%TO.C,H1*%
X83312000Y-52070000D03*
%TD*%
%TO.C,H4*%
X111760000Y-97536000D03*
%TD*%
%TO.C,H3*%
X111760000Y-52070000D03*
%TD*%
D13*
X94386400Y-82397600D03*
X97261500Y-82788850D03*
X101142800Y-88493600D03*
X93319600Y-66598800D03*
X90220800Y-99872800D03*
X87477600Y-95148400D03*
X101193600Y-87579200D03*
X112034800Y-86330000D03*
X93319600Y-63804800D03*
X98755200Y-82143600D03*
X97942400Y-93929200D03*
X84124800Y-82245200D03*
X97028000Y-93929200D03*
X97434400Y-62687200D03*
X90424000Y-57454800D03*
X104749600Y-100025200D03*
X98755200Y-63804800D03*
X101346000Y-84277200D03*
X85125600Y-65481200D03*
X91846400Y-73812400D03*
X96012000Y-67818000D03*
X98755200Y-66598800D03*
X85242400Y-81889600D03*
X100431600Y-84328000D03*
X94640400Y-62687200D03*
X96062800Y-62687200D03*
X107492800Y-95351600D03*
X94640400Y-67818000D03*
X97434400Y-67868800D03*
X112623600Y-93700700D03*
X93370400Y-65176400D03*
X104698800Y-57454800D03*
X98755200Y-65176400D03*
X83347600Y-65227200D03*
X105308400Y-76454000D03*
X84429600Y-72593200D03*
X106496730Y-78201130D03*
X87071200Y-72593200D03*
X82448400Y-72593200D03*
X91643200Y-72644000D03*
X87426800Y-77419200D03*
X89916000Y-77368400D03*
X95208873Y-85645973D03*
X95208873Y-87582027D03*
X98856800Y-92252800D03*
X101230300Y-92252800D03*
X104546400Y-70307200D03*
X111404400Y-70307200D03*
X101600000Y-70256400D03*
X98247200Y-70205600D03*
X99060000Y-69291200D03*
X104546400Y-69291200D03*
X102514400Y-69291200D03*
X111404400Y-69291200D03*
X90424000Y-86044700D03*
X90474800Y-84545700D03*
X89475438Y-84528921D03*
X89458800Y-86794200D03*
X89865200Y-80619600D03*
X87477600Y-80619600D03*
M02*
